<svg width="100" height="100" viewBox="0 0 100 100" fill="none" xmlns="http://www.w3.org/2000/svg">
<g clip-path="url(#clip0_6_46968)">
<path fill-rule="evenodd" clip-rule="evenodd" d="M40.5161 72.6568L30.5161 65.9341L78.0645 33.8074L48.7097 14.0271L34.9032 23.3355L45.6129 30.446L20.9032 46.9942L0.193549 33.2902L50.0645 0L99.5484 33.161L40.5161 72.6568ZM59.2903 27.0847L69.2903 33.8074L21.7419 65.9341L51.1613 85.7143L64.9677 76.406L54.2581 69.3601L79.0322 52.8119L99.7419 66.5158L49.7419 99.7414L0.387097 66.7098L59.2903 27.0847ZM20.5161 86.5546L10.3226 79.5734L0 86.5546L0.129033 100L20.5161 86.5546ZM79.7419 13.7039L90 20.6852L100 14.0271V0.258565L79.7419 13.7039Z" fill="#003DA4"/>
</g>
<defs>
<clipPath id="clip0_6_46968">
<rect width="100" height="100" fill="white"/>
</clipPath>
</defs>
</svg>
