<svg width="100" height="100" viewBox="0 0 100 100" fill="none" xmlns="http://www.w3.org/2000/svg">
<rect width="100" height="100" fill="#FFEF38"/>
<path fill-rule="evenodd" clip-rule="evenodd" d="M45.2581 61.3284L40.2581 57.967L64.0323 41.9037L49.3548 32.0136L42.4516 36.6677L47.8064 40.223L35.4516 48.4971L25.0968 41.6451L50.0323 25L74.7742 41.5805L45.2581 61.3284ZM54.6452 38.5423L59.6452 41.9037L35.871 57.967L50.5806 67.8571L57.4839 63.203L52.129 59.68L64.5161 51.4059L74.871 58.2579L49.871 74.8707L25.1935 58.3549L54.6452 38.5423ZM35.2581 68.2773L30.1613 64.7867L25 68.2773L25.0645 75L35.2581 68.2773ZM64.871 31.852L70 35.3426L75 32.0136V25.1293L64.871 31.852Z" fill="#003DA4"/>
</svg>
