<svg width="100" height="100" viewBox="0 0 100 100" fill="none" xmlns="http://www.w3.org/2000/svg">
<rect width="100" height="100" fill="#CE1C30"/>
<path d="M54.3362 59.2675L50.4101 61.527V75.9946L54.6274 76C55.0421 76.0006 55.3787 75.6645 55.3787 75.2498V59.8069C55.3787 59.2151 54.8072 58.9993 54.3362 59.2675ZM48.6412 38.5861C45.7339 38.5861 42.5554 38.8533 39.4155 39.3871C42.5942 35.3063 47.6333 32.6747 53.2539 32.6747C57.4015 32.6747 61.5492 34.2384 64.3401 36.5649C64.844 36.9843 65.2318 37.0227 65.6193 36.6411C66.0069 36.2598 65.9682 35.8782 65.5419 35.3826C61.898 31.1492 56.5488 28.2889 50.2304 28.403C41.974 28.5559 34.9578 33.7806 32.2833 41.0272C29.8412 41.7898 27.5929 42.7052 25.616 43.811C25.0733 44.1164 24.8795 44.4977 25.0733 44.9554C25.2671 45.3749 25.6548 45.5273 26.1975 45.3749C27.9031 44.879 29.6473 44.4596 31.4692 44.078C31.2754 45.0317 31.1592 46.0232 31.1592 47.0529C31.004 53.7271 34.5702 60.0582 40.0746 63.5287C40.6173 63.8721 41.0825 63.8721 41.3926 63.4525C41.7027 63.033 41.6639 62.6517 41.1987 62.2323C37.71 59.1047 35.7718 54.4517 35.7718 49.837C35.7718 47.5104 36.237 45.2604 37.1285 43.2389C38.9505 43.0865 40.9274 42.9719 43.0981 42.9719C57.2079 42.9719 69.1079 47.625 69.1079 53.7271C69.1079 56.8163 65.1929 59.9055 60.5415 61.9653C59.4171 62.4609 59.3009 62.8041 59.4561 63.3C59.611 63.7576 60.115 63.9102 60.6964 63.7195C68.8365 61.0499 75 56.6639 75 51.3625C75 44.1543 63.3711 38.5861 48.6412 38.5861ZM45.6314 64.8372V75.5163C45.6314 75.7836 45.848 76 46.1154 76H49.0859V62.288L46.1204 63.9956C45.818 64.1679 45.6314 64.4393 45.6314 64.8372Z" fill="white"/>
</svg>
