<svg width="100" height="100" viewBox="0 0 100 100" fill="none" xmlns="http://www.w3.org/2000/svg">
<path d="M58.6723 63.6056L50.8203 68.1149V96.9892L59.2548 97C60.0841 97.0013 60.7573 96.3303 60.7573 95.5027V64.6821C60.7573 63.501 59.6144 63.0703 58.6723 63.6056ZM47.2825 22.3298C41.4678 22.3298 35.1109 22.8631 28.831 23.9285C35.1883 15.7842 45.2666 10.532 56.5078 10.532C64.8031 10.532 73.0983 13.6527 78.6802 18.296C79.6881 19.1331 80.4636 19.2096 81.2387 18.4481C82.0138 17.687 81.9363 16.9256 81.0838 15.9363C73.796 7.48735 63.0975 1.77879 50.4607 2.00658C33.948 2.31166 19.9156 12.7391 14.5666 27.2017C9.68234 28.7238 5.18576 30.5506 1.23192 32.7577C0.146578 33.3671 -0.241009 34.1281 0.146579 35.0417C0.534291 35.8788 1.30959 36.1831 2.39493 35.8788C5.80617 34.8892 9.29459 34.0521 12.9385 33.2906C12.5507 35.1939 12.3183 37.1728 12.3183 39.2277C12.008 52.5481 19.1405 65.1835 30.1492 72.1099C31.2346 72.7954 32.165 72.7954 32.7852 71.9578C33.4053 71.1207 33.3279 70.3596 32.3974 69.5225C25.4199 63.2807 21.5436 53.9942 21.5436 44.7842C21.5436 40.1409 22.4741 35.6502 24.2571 31.6159C27.901 31.3117 31.8547 31.0831 36.1963 31.0831C64.4157 31.0831 88.2158 40.3695 88.2158 52.5481C88.2158 58.7135 80.3857 64.8789 71.0829 68.9897C68.8343 69.9789 68.6019 70.6639 68.9122 71.6536C69.222 72.5668 70.2299 72.8714 71.3928 72.4907C87.6731 67.1629 100 58.4092 100 47.8288C100 33.4427 76.7422 22.3298 47.2825 22.3298ZM41.2627 74.7214V96.0347C41.2627 96.568 41.6961 97 42.2309 97H48.1719V69.6337L42.2408 73.0417C41.636 73.3857 41.2627 73.9272 41.2627 74.7214Z" fill="#CE1C30"/>
</svg>
