<svg width="100" height="100" viewBox="0 0 100 100" fill="none" xmlns="http://www.w3.org/2000/svg">
<path d="M33.4936 59.4323C31.7615 60.9357 29.7516 61.6873 27.4671 61.6873C24.5325 61.6873 22.1568 60.6553 20.3331 58.5947C18.506 56.5309 17.5943 53.8332 17.5943 50.4986C17.5943 47.145 18.5028 44.4347 20.3141 42.3709C22.1252 40.3103 24.5104 39.2749 27.4671 39.2749C29.6159 39.2749 31.5563 39.9597 33.2856 41.3228C35.0177 42.686 36.2419 44.4856 36.9582 46.7243H53.8264C52.9495 39.9405 50.0844 34.4593 45.2378 30.2743C40.388 26.0894 34.4404 24 27.3976 24C22.1788 24 17.4807 25.1342 13.2998 27.4083C9.12218 29.6789 5.85963 32.8385 3.51509 36.8801C1.17088 40.9249 0 45.4664 0 50.4986C0 55.5341 1.17088 60.0724 3.51509 64.1172C5.85963 68.162 9.12218 71.3185 13.2998 73.5923C17.4807 75.8664 22.1788 77 27.3976 77C34.5572 77 40.5838 74.8311 45.4777 70.4999C50.3745 66.1619 53.2143 60.4991 54 53.5053H36.8887C36.3587 55.9544 35.2261 57.929 33.4936 59.4323Z" fill="black"/>
<path d="M94.9834 45.8397C91.6392 42.6995 87.3272 41.1322 82.0412 41.1322C81.4987 41.1322 80.7626 41.1576 79.8296 41.2051L89.1864 26L72.4748 26.0031L64.5646 38.8877C62.3279 42.5411 60.6747 45.9062 59.6056 48.9863C58.5361 52.0635 58 55.1247 58 58.1639C58 63.7325 59.9481 68.2628 63.8444 71.7578C67.7409 75.2528 72.7983 77 79.0172 77C85.3092 77 90.3797 75.2591 94.2283 71.7767C98.0738 68.2944 100 63.7073 100 58.0184C100 53.0386 98.3277 48.98 94.9834 45.8397ZM83.7005 62.6878C82.4948 63.891 80.9368 64.4924 79.0172 64.4924C77.1009 64.4924 75.5397 63.891 74.3372 62.6878C73.1316 61.4881 72.5288 59.9304 72.5288 58.0184C72.5288 56.1032 73.1316 54.536 74.3372 53.3078C75.5397 52.0827 77.1009 51.4686 79.0172 51.4686C80.9368 51.4686 82.4948 52.0827 83.7005 53.3078C84.9032 54.536 85.506 56.1032 85.506 58.0184C85.506 59.9304 84.9032 61.4881 83.7005 62.6878Z" fill="black"/>
</svg>
