<svg width="100" height="100" viewBox="0 0 100 100" fill="none" xmlns="http://www.w3.org/2000/svg">
<rect width="100" height="100" fill="black"/>
<path d="M41.5551 54.3988C40.6473 55.1794 39.5938 55.5697 38.3964 55.5697C36.8583 55.5697 35.6131 55.0338 34.6573 53.9638C33.6996 52.8921 33.2217 51.4913 33.2217 49.7598C33.2217 48.0184 33.6979 46.611 34.6473 45.5394C35.5966 44.4694 36.8467 43.9318 38.3964 43.9318C39.5227 43.9318 40.5397 44.2873 41.4461 44.9952C42.354 45.703 42.9956 46.6375 43.371 47.8H52.2122C51.7526 44.2774 50.2509 41.4312 47.7106 39.2581C45.1687 37.085 42.0514 36.0001 38.36 36.0001C35.6247 36.0001 33.1622 36.589 30.9709 37.7698C28.7812 38.9489 27.0712 40.5896 25.8424 42.6882C24.6137 44.7885 24 47.1468 24 49.7598C24 52.3745 24.6137 54.7311 25.8424 56.8314C27.0712 58.9317 28.7812 60.5708 30.9709 61.7515C33.1622 62.9324 35.6247 63.521 38.36 63.521C42.1126 63.521 45.2713 62.3948 47.8364 60.1457C50.403 57.8932 51.8914 54.9527 52.3032 51.3211H43.3346C43.0568 52.5928 42.4632 53.6181 41.5551 54.3988" fill="white"/>
<path d="M73.3851 47.243C71.642 45.6025 69.3944 44.7837 66.6393 44.7837C66.3565 44.7837 65.9728 44.797 65.4865 44.8218L70.3635 36.8786L61.653 36.8802L57.53 43.6112C56.3642 45.5197 55.5025 47.2777 54.9453 48.8867C54.3879 50.4943 54.1084 52.0935 54.1084 53.6812C54.1084 56.5902 55.1238 58.9569 57.1546 60.7827C59.1856 62.6085 61.8216 63.5212 65.0631 63.5212C68.3426 63.5212 70.9855 62.6118 72.9915 60.7926C74.9958 58.9734 75.9998 56.5771 75.9998 53.6051C75.9998 51.0037 75.1282 48.8835 73.3851 47.243ZM67.5041 56.0445C66.8757 56.673 66.0636 56.9872 65.0631 56.9872C64.0642 56.9872 63.2505 56.673 62.6238 56.0445C61.9954 55.4177 61.6812 54.604 61.6812 53.6051C61.6812 52.6046 61.9954 51.7859 62.6238 51.1443C63.2505 50.5043 64.0642 50.1835 65.0631 50.1835C66.0636 50.1835 66.8757 50.5043 67.5041 51.1443C68.131 51.7859 68.4452 52.6046 68.4452 53.6051C68.4452 54.604 68.131 55.4177 67.5041 56.0445Z" fill="white"/>
</svg>
