<svg width="100" height="100" viewBox="0 0 100 100" fill="none" xmlns="http://www.w3.org/2000/svg">
<rect width="100" height="100" fill="#FE3E6D"/>
<path d="M48.5177 25.0001C47.5522 25.0119 46.3874 25.1649 45.7977 25.2666C42.2676 25.8748 38.8622 27.2423 35.898 29.2728C31.387 32.3625 27.9164 36.9768 26.2184 42.1776C24.2208 48.2969 24.6995 55.1538 27.5073 60.9151C30.1747 66.3887 34.8909 70.8203 40.5188 73.1336C45.2527 75.0794 50.5509 75.5101 55.5104 74.3961C61.5475 73.0398 66.9539 69.3818 70.4866 64.3654C73.1333 60.6069 74.701 56.1105 74.9975 51.5194C75.0208 51.1245 74.8806 50.7369 74.6097 50.4485C74.3388 50.1602 73.9613 49.996 73.5657 49.9951L73.3062 49.9945C71.5566 49.9905 68.8935 49.9842 67.2857 49.984C66.5371 49.9822 65.9128 50.5576 65.8533 51.3045C65.7815 52.1585 65.6422 53.0049 65.4337 53.8358C64.4686 57.6851 61.9915 61.1358 58.6548 63.3056C55.2586 65.5138 51.0242 66.3349 47.0529 65.5854C43.0884 64.8372 39.5011 62.5267 37.1499 59.2907C35.1893 56.5925 34.1159 53.2589 34.1211 49.9294C34.128 45.6018 35.9762 41.3515 39.1057 38.3925C41.7116 35.9288 45.1428 34.4031 48.7282 34.1031C49.4724 34.0405 50.0449 33.418 50.0455 32.6706L50.046 32.2343C50.0471 30.5376 50.0491 28.032 50.0482 26.4346C50.0486 26.037 49.8842 25.6569 49.594 25.3851C49.304 25.1131 48.9162 24.9953 48.5177 25.0001ZM74.9679 33.0658C74.9679 28.6442 71.3808 25.0543 66.9626 25.0543C62.5444 25.0543 58.9573 28.6442 58.9573 33.0658C58.9573 37.4877 62.5444 41.0776 66.9626 41.0776C71.3808 41.0776 74.9679 37.4877 74.9679 33.0658Z" fill="white"/>
</svg>
