<svg width="100" height="100" viewBox="0 0 100 100" fill="none" xmlns="http://www.w3.org/2000/svg">
<path d="M47.0355 0.000289275C45.1044 0.023876 42.7747 0.329765 41.5954 0.533219C34.5351 1.74956 27.7244 4.48467 21.7959 8.5457C12.7741 14.7251 5.83279 23.9536 2.43688 34.3552C-1.55831 46.5938 -0.601074 60.3076 5.01457 71.8303C10.3495 82.7774 19.7819 91.6405 31.0377 96.2672C40.5054 100.159 51.1017 101.02 61.0208 98.7921C73.095 96.0797 83.9079 88.7636 90.9732 78.7307C96.2665 71.2138 99.4021 62.221 99.995 53.0387C100.042 52.2489 99.7612 51.4738 99.2194 50.8969C98.6777 50.3205 97.9225 49.9921 97.1314 49.9903L96.6123 49.9889C93.1132 49.9809 87.787 49.9685 84.5715 49.968C83.0741 49.9645 81.8257 51.1152 81.7066 52.6089C81.563 54.3169 81.2843 56.0098 80.8675 57.6716C78.9372 65.3703 73.983 72.2716 67.3097 76.6112C60.5173 81.0276 52.0484 82.6699 44.1058 81.1707C36.1768 79.6743 29.0021 75.0534 24.2999 68.5814C20.3787 63.185 18.2318 56.5178 18.2423 49.8587C18.256 41.2036 21.9524 32.703 28.2114 26.785C33.4231 21.8577 40.2857 18.8062 47.4564 18.2062C48.9448 18.081 50.0897 16.836 50.091 15.3411L50.0919 14.4685C50.0942 11.0751 50.0982 6.06401 50.0964 2.86911C50.0973 2.074 49.7684 1.31373 49.1879 0.770174C48.6079 0.226249 47.8324 -0.00944851 47.0355 0.000289275ZM99.9359 16.1317C99.9359 7.28832 92.7617 0.108503 83.9252 0.108503C75.0888 0.108503 67.9146 7.28832 67.9146 16.1317C67.9146 24.9753 75.0888 32.1551 83.9252 32.1551C92.7617 32.1551 99.9359 24.9753 99.9359 16.1317Z" fill="#FE3E6D"/>
</svg>
