<svg width="100" height="100" viewBox="0 0 100 100" fill="none" xmlns="http://www.w3.org/2000/svg">
<rect width="100" height="100" fill="#171527"/>
<path fill-rule="evenodd" clip-rule="evenodd" d="M50 69.1678C60.5869 69.1678 69.1679 60.5868 69.1679 49.9999C69.1679 39.413 60.5869 30.8321 50 30.8321C39.4131 30.8321 30.8321 39.413 30.8321 49.9999C30.8321 60.5868 39.4131 69.1678 50 69.1678ZM75 49.9999C75 63.8187 63.8186 74.9999 50 74.9999C36.1813 74.9999 25 63.8187 25 49.9999C25 36.1812 36.1813 25 50 25C63.8186 25 75 36.1812 75 49.9999Z" fill="url(#paint0_linear_1676_1930)"/>
<defs>
<linearGradient id="paint0_linear_1676_1930" x1="50.0012" y1="25.0026" x2="50.0012" y2="74.9973" gradientUnits="userSpaceOnUse">
<stop stop-color="#00EE26"/>
<stop offset="1" stop-color="#FFC600"/>
</linearGradient>
</defs>
</svg>
