<svg width="100" height="100" viewBox="0 0 100 100" fill="none" xmlns="http://www.w3.org/2000/svg">
<g clip-path="url(#clip0_1676_1931)">
<path d="M49.9999 100C77.6 100 100 77.6001 100 50.0001C100 22.4 77.6 0 49.9999 0C22.4 0 0 22.4 0 50.0001C0 77.6001 22.4 100 49.9999 100Z" fill="#171527"/>
<path fill-rule="evenodd" clip-rule="evenodd" d="M50.317 76.1165C64.567 76.1165 76.1171 64.5664 76.1171 50.3164C76.1171 36.0664 64.567 24.5165 50.317 24.5165C36.067 24.5165 24.517 36.0664 24.517 50.3164C24.517 64.5664 36.067 76.1165 50.317 76.1165ZM83.9671 50.3164C83.9671 68.9166 68.9169 83.9665 50.317 83.9665C31.7171 83.9665 16.667 68.9166 16.667 50.3164C16.667 31.7165 31.7171 16.6665 50.317 16.6665C68.9169 16.6665 83.9671 31.7165 83.9671 50.3164Z" fill="url(#paint0_linear_1676_1931)"/>
</g>
<defs>
<linearGradient id="paint0_linear_1676_1931" x1="50.3186" y1="16.6701" x2="50.3186" y2="83.963" gradientUnits="userSpaceOnUse">
<stop stop-color="#00EE26"/>
<stop offset="1" stop-color="#FFC600"/>
</linearGradient>
<clipPath id="clip0_1676_1931">
<rect width="100" height="100" fill="white"/>
</clipPath>
</defs>
</svg>
