<svg width="100" height="100" viewBox="0 0 100 100" fill="none" xmlns="http://www.w3.org/2000/svg">
<path d="M54.4974 79.0097C54.831 78.5311 55.1617 78.1001 55.5176 77.5902C41.5447 67.3613 27.6234 57.1379 13.6289 46.8936C15.0435 44.6775 16.4488 42.4918 17.8898 40.2693C31.7846 50.5053 45.5865 60.7316 59.4784 70.9659C59.9255 70.3772 60.3527 69.8375 60.7987 69.2506C49.8668 55.5675 38.9733 41.8985 28.0319 28.2035C30.693 26.0739 33.2816 23.9543 35.9535 21.8158C46.8002 34.8648 57.6144 47.8988 68.4802 60.9702C68.949 60.5573 69.4074 60.1937 69.8005 59.7873C69.8911 59.6933 69.8623 59.4183 69.8005 59.255C69.4224 58.2594 68.9952 57.2874 68.6003 56.2977C62.825 41.8178 57.0302 27.3062 51.2567 12.8257C51.1847 12.6446 51.1631 12.4892 51.0766 12.2342C54.8564 10.66 58.608 9.08975 62.419 7.50255C68.3756 23.0231 74.3101 38.4747 80.2427 53.9319C80.7378 53.9455 81.1566 53.7149 81.5629 53.577C81.6602 53.5439 81.7238 53.3978 81.743 53.2813C81.7778 53.0695 81.743 52.8472 81.743 52.6307C81.743 36.0678 81.743 19.5112 81.743 2.94833V2.06115C81.9981 2.03808 82.1925 2.002 82.4031 2.002C88.0044 1.99904 93.6053 1.99964 99.2066 2.002C99.4208 2.002 99.6717 2.04754 99.8667 2.06115C100.007 2.5563 100.052 96.5084 99.9267 97.2265C99.9117 97.2401 99.8823 97.2733 99.8667 97.2857C99.8517 97.2981 99.8241 97.2821 99.8067 97.2857C99.7485 97.2981 99.6861 97.3448 99.6267 97.3448C66.5604 97.3472 33.4924 97.3448 0.426182 97.3448C0.327756 97.3448 0.22755 97.3005 0.0661076 97.2857C0.040901 97.1195 0.00729555 96.9793 0.00609523 96.8125C-0.00110665 95.9056 -0.00290713 94.9987 0.00609523 94.0918C0.0114966 93.5647 0.0588759 93.5104 0.606219 93.5004C0.786266 93.4968 0.966284 93.5004 1.14633 93.5004C17.3494 93.5004 33.5527 93.5004 49.7564 93.5004C50.8685 93.5004 50.6583 93.6206 50.8966 92.6132C50.932 92.4647 50.881 92.2601 50.8966 92.0217C34.2909 88.6148 17.6981 85.2686 1.02631 81.8487C1.34499 80.0402 1.66662 78.2796 1.9865 76.4664C18.6361 80.0105 35.2259 83.5851 51.7968 87.1126C52.0579 86.6979 52.2541 85.8139 52.2769 85.1017C36.62 78.3985 20.9801 71.677 5.22717 64.933C5.85074 63.1015 6.53601 61.2782 7.20758 59.4325C7.45065 59.5176 7.61326 59.5886 7.80771 59.669C14.0331 62.2507 20.3061 64.8343 26.5316 67.4171C35.6672 71.2073 44.7604 75.0444 53.8972 78.8322C54.0767 78.9068 54.2741 78.9334 54.4974 79.0097V79.0097Z" fill="#EA7100"/>
</svg>
