<svg width="100" height="100" viewBox="0 0 100 100" fill="none" xmlns="http://www.w3.org/2000/svg">
<rect width="100" height="100" fill="#EA7100"/>
<path d="M52.2487 64.5048C52.4155 64.2655 52.5808 64.0501 52.7588 63.7951C45.7724 58.6806 38.8117 53.5689 31.8145 48.4468C32.5217 47.3388 33.2244 46.2459 33.9449 45.1346C40.8923 50.2526 47.7933 55.3658 54.7392 60.4829C54.9627 60.1886 55.1764 59.9187 55.3993 59.6253C49.9334 52.7838 44.4867 45.9492 39.0159 39.1018C40.3465 38.0369 41.6408 36.9772 42.9768 35.9079C48.4001 42.4324 53.8072 48.9494 59.2401 55.4851C59.4745 55.2787 59.7037 55.0969 59.9003 54.8937C59.9456 54.8466 59.9312 54.7091 59.9003 54.6275C59.7112 54.1297 59.4976 53.6437 59.3001 53.1489C56.4125 45.9089 53.5151 38.6531 50.6283 31.4128C50.5923 31.3223 50.5815 31.2446 50.5383 31.1171C52.4282 30.33 54.304 29.5449 56.2095 28.7513C59.1878 36.5115 62.1551 44.2373 65.1213 51.966C65.3689 51.9728 65.5783 51.8574 65.7815 51.7885C65.8301 51.772 65.8619 51.6989 65.8715 51.6407C65.8889 51.5348 65.8715 51.4236 65.8715 51.3153C65.8715 43.0339 65.8715 34.7556 65.8715 26.4742V26.0306C65.999 26.019 66.0962 26.001 66.2016 26.001C69.0022 25.9995 71.8027 25.9998 74.6033 26.001C74.7104 26.001 74.8358 26.0238 74.9334 26.0306C75.0036 26.2781 75.0258 73.2542 74.9634 73.6133C74.9559 73.6201 74.9412 73.6366 74.9334 73.6428C74.9259 73.6491 74.9121 73.6411 74.9034 73.6428C74.8743 73.6491 74.843 73.6724 74.8133 73.6724C58.2802 73.6736 41.7462 73.6724 25.2131 73.6724C25.1639 73.6724 25.1138 73.6502 25.0331 73.6428C25.0205 73.5597 25.0036 73.4897 25.003 73.4063C24.9994 72.9528 24.9985 72.4993 25.003 72.0459C25.0057 71.7824 25.0294 71.7552 25.3031 71.7502C25.3931 71.7484 25.4831 71.7502 25.5732 71.7502C33.6747 71.7502 41.7764 71.7502 49.8782 71.7502C50.4342 71.7502 50.3292 71.8103 50.4483 71.3066C50.466 71.2323 50.4405 71.1301 50.4483 71.0109C42.1454 69.3074 33.849 67.6343 25.5132 65.9243C25.6725 65.0201 25.8333 64.1398 25.9933 63.2332C34.318 65.0053 42.6129 66.7925 50.8984 68.5563C51.0289 68.349 51.127 67.907 51.1384 67.5508C43.31 64.1993 35.49 60.8385 27.6136 57.4665C27.9254 56.5507 28.268 55.6391 28.6038 54.7162C28.7253 54.7588 28.8066 54.7943 28.9039 54.8345C32.0166 56.1253 35.1531 57.4172 38.2658 58.7086C42.8336 60.6037 47.3802 62.5222 51.9486 64.4161C52.0383 64.4534 52.137 64.4667 52.2487 64.5048Z" fill="white"/>
</svg>
