<svg width="100" height="100" viewBox="0 0 100 100" fill="none" xmlns="http://www.w3.org/2000/svg">
<g clip-path="url(#clip0_6_47002)">
<g clip-path="url(#clip1_6_47002)">
<path d="M43.4741 0.119517C40.5997 0.18785 38.4911 0.288892 34.6255 0.527225C32.8376 0.633892 30.8859 0.790975 29.5116 0.928475C29.1666 0.965975 28.4449 1.03514 27.9116 1.08556C25.6713 1.30535 22.3453 1.72514 20.9463 1.96368C20.6509 2.0141 20.218 2.08327 19.9738 2.12077C19.7353 2.15243 19.3082 2.22722 19.0322 2.27785C18.7563 2.32827 18.2918 2.41618 17.9972 2.46577C16.9611 2.6416 15.1984 2.99952 14.2007 3.23806C13.9241 3.30722 13.4284 3.42598 13.1022 3.50181C12.7757 3.5766 12.4813 3.64577 12.4438 3.65223C10.6045 4.09097 8.77843 4.97639 7.37301 6.12452C6.00489 7.23535 4.78176 9.02993 4.16655 10.812C4.06656 11.0881 3.96551 11.3704 3.93468 11.4395C3.82801 11.6781 3.36343 13.6856 3.03051 15.3303C2.98093 15.6062 2.89301 16.0139 2.8426 16.2401C2.79197 16.4656 2.72385 16.861 2.67968 17.1183C2.64155 17.3753 2.59176 17.6895 2.5601 17.8083C2.46572 18.1666 2.08322 20.6135 1.83822 22.3893C1.59989 24.1089 1.4428 25.3581 1.3053 26.6251C1.23614 27.246 1.16697 27.8547 1.15468 27.9743C1.13593 28.0931 1.07905 28.702 1.0228 29.3237C0.972388 29.9445 0.897596 30.7039 0.859263 31.0181C0.727388 32.172 0.40093 37.1989 0.23843 40.7445C0.113013 43.3731 0.0315545 49.0022 0.0755128 52.071C0.119471 55.8985 0.213013 59.3189 0.300929 60.511C0.332804 60.9937 0.395305 62.011 0.432805 62.7701C0.470305 63.5293 0.520721 64.5018 0.552388 64.9347C0.696555 67.106 0.80968 68.5301 0.865721 68.9818C0.897596 69.2585 0.972388 69.9926 1.0228 70.607C1.07322 71.2222 1.14822 71.9564 1.17989 72.2387C1.21739 72.5212 1.28655 73.1297 1.33614 73.5945C1.49322 75.0814 1.6128 76.0539 1.71301 76.7008C1.76343 77.0458 1.85135 77.6358 1.90093 78.0183C2.08322 79.3985 2.29635 80.7412 2.52843 81.9718C2.57885 82.2476 2.6603 82.7124 2.71718 83.007C2.82385 83.6343 3.06864 84.8835 3.24447 85.6737C3.84655 88.4416 4.1103 89.2691 4.81926 90.6314C5.01364 91.0074 5.26447 91.4468 5.3776 91.6039C5.48406 91.761 5.64114 91.9864 5.7226 92.106C6.08051 92.6391 7.10364 93.6808 7.66843 94.0828C7.76197 94.1512 7.94426 94.2828 8.06301 94.3774C8.18926 94.4774 8.30801 94.5531 8.33968 94.5531C8.36489 94.5531 8.4276 94.597 8.47718 94.6476C8.72218 94.886 10.4482 95.7081 11.188 95.9276C11.3263 95.9716 11.4957 96.0276 11.5649 96.0595C11.7284 96.1345 12.6503 96.3664 13.7613 96.6178C14.2447 96.731 14.7403 96.8497 14.8593 96.8814C15.148 96.9564 16.9676 97.3201 18.3422 97.5716C19.1324 97.7156 20.6705 97.9606 21.6363 98.0989C22.0003 98.1485 22.4649 98.2176 22.6718 98.2551C23.4309 98.387 26.5688 98.7516 28.5391 98.9395C29.248 99.0087 30.1203 99.0901 30.4841 99.1274C31.0741 99.1901 31.6763 99.2406 34.5628 99.4474C34.9957 99.4791 35.9813 99.5353 36.7593 99.5735C37.5374 99.611 38.623 99.6672 39.1755 99.6989C43.6432 99.956 56.4193 99.956 60.8243 99.6989C61.3768 99.6614 62.4624 99.611 63.2405 99.5735C64.5768 99.511 65.0666 99.4791 67.1622 99.322C69.8476 99.1153 73.7955 98.732 75.1318 98.5441C75.5143 98.4878 76.1734 98.3999 76.6063 98.3431C78.2063 98.1364 80.4028 97.8035 81.6576 97.5716C83.0322 97.3201 84.8518 96.9564 85.1407 96.8814C85.2595 96.8497 85.7551 96.731 86.2386 96.6178C87.3241 96.3728 88.2657 96.1345 88.4349 96.0595C88.6434 95.9843 88.8526 95.9111 89.0624 95.8397C89.5768 95.6706 91.2841 94.8608 91.428 94.7224C91.472 94.6785 91.5974 94.5849 91.7041 94.5214C92.1938 94.2145 92.4193 94.0389 92.8653 93.6368C93.3674 93.1785 94.0641 92.426 94.2332 92.1687C94.2895 92.0808 94.4401 91.8676 94.5653 91.6983C94.6972 91.5226 94.8038 91.3656 94.8038 91.3403C94.8038 91.3149 94.9047 91.1393 95.0234 90.9512C95.1432 90.7633 95.2872 90.4866 95.3443 90.336C95.4068 90.192 95.4693 90.0349 95.4947 90.0041C95.6134 89.847 96.053 88.5978 96.2409 87.8889C96.5363 86.791 97.088 84.1993 97.2891 82.9751C97.3395 82.6618 97.3957 82.3672 97.4145 82.3168C97.4713 82.1785 97.8166 80.026 98.1297 77.8303C98.1989 77.347 98.268 76.8637 98.2868 76.7635C98.3374 76.4745 98.5628 74.5483 98.6636 73.5318C98.7132 73.0297 98.7824 72.452 98.8199 72.2451C98.8582 72.0376 98.9266 71.3606 98.977 70.7389C99.0274 70.1181 99.0966 69.3522 99.1276 69.0445C99.1651 68.7312 99.222 68.016 99.2593 67.4445C99.2968 66.8733 99.3536 66.171 99.3847 65.8758C99.4228 65.581 99.4913 64.4953 99.5418 63.4601C99.5986 62.4243 99.6613 61.1506 99.6988 60.6364C99.9811 56.0741 99.9811 44.1014 99.6988 39.3954C99.667 38.8614 99.6109 37.8141 99.5734 37.0735C99.5353 36.3328 99.4791 35.3539 99.4474 34.9081C99.4099 34.4564 99.3286 33.3456 99.2593 32.4299C99.1901 31.5137 99.1209 30.6535 99.1022 30.516C99.0834 30.3774 99.0274 29.7689 98.977 29.1666C98.9266 28.5645 98.8703 27.9995 98.8516 27.9118C98.8328 27.8239 98.7636 27.246 98.6945 26.6251C98.532 25.1251 98.3307 23.4691 98.2868 23.2747C98.268 23.1868 98.1989 22.6847 98.1297 22.1695C97.8222 19.8233 97.2518 16.5535 96.7618 14.3262C96.6926 14.012 96.5803 13.5041 96.5111 13.1966C96.3353 12.3933 96.1278 11.5837 96.0595 11.4395C96.0278 11.3704 95.9716 11.2012 95.9276 11.0628C95.7893 10.5989 95.0926 9.04868 94.917 8.80368C94.8916 8.76618 94.6916 8.4716 94.4774 8.14535C94.0322 7.47389 92.8905 6.2816 92.2061 5.77952C90.8511 4.78181 89.3447 4.10389 87.3999 3.62702C87.0647 3.54508 86.73 3.46126 86.3957 3.37556C86.1636 3.30722 85.6989 3.20639 84.7011 2.99952C84.4185 2.94023 84.1361 2.87947 83.8541 2.81722C82.643 2.52264 78.702 1.88222 76.1359 1.55597C75.6207 1.49327 75.113 1.4241 75.0063 1.39972C74.8176 1.36139 73.9078 1.26785 72.0572 1.08556C71.542 1.03514 70.8332 0.960142 70.4882 0.928475C70.1432 0.890975 69.5216 0.834725 69.108 0.7966C68.6936 0.765767 68.0159 0.708683 67.6018 0.67785C66.1961 0.558267 62.2932 0.33285 60.1343 0.238267C55.9609 0.0561833 48.2553 -6.66603e-05 43.4741 0.119517ZM15.8259 42.5204C15.8634 42.5512 16.0457 42.6083 16.2272 42.652C16.5666 42.7335 17.0434 42.9533 17.4005 43.1916C17.683 43.3797 18.3486 44.0949 18.4797 44.3464C18.5432 44.4718 18.6116 44.5849 18.6303 44.6037C18.6499 44.6224 18.7059 44.7476 18.7563 44.886C18.8003 45.0235 18.8563 45.1685 18.8882 45.1993C18.9695 45.3189 19.0641 46.0651 19.0641 46.6179C19.0641 47.1574 18.9818 47.7912 18.8753 48.0233C18.5368 48.8012 18.3732 49.0583 17.9468 49.5108C17.5511 49.9185 17.3884 50.0439 16.8488 50.3076C16.4093 50.5272 16.0953 50.6403 15.8447 50.6647C15.6436 50.6899 15.4678 50.7339 15.4491 50.7593C15.4053 50.8349 14.0436 50.8349 14.0436 50.7593C14.0436 50.7339 13.8866 50.6899 13.6855 50.6647C13.4911 50.6403 13.247 50.5835 13.1403 50.5395C13.0042 50.4783 12.8661 50.4218 12.7261 50.3701C12.6066 50.3264 12.4934 50.2758 12.4747 50.257C12.4559 50.232 12.3616 50.1758 12.2549 50.1254C11.8911 49.9437 11.1382 49.1087 10.9186 48.6506C10.7991 48.4058 10.6868 48.1672 10.6551 48.1176C10.4418 47.6906 10.4043 45.7453 10.6045 45.2937C10.6616 45.1741 10.7428 44.9739 10.7868 44.8541C10.8307 44.7353 10.8811 44.6222 10.8999 44.6037C10.9186 44.5849 10.9936 44.4587 11.0628 44.3212C11.1824 44.0885 11.9286 43.2854 12.0353 43.2854C12.0603 43.2854 12.1174 43.2414 12.1613 43.1853C12.2801 43.0533 12.8888 42.7587 13.2593 42.6645C13.4349 42.6203 13.6295 42.5576 13.6986 42.526C13.7678 42.4951 13.937 42.4635 14.0747 42.4447C14.4449 42.4072 15.7445 42.4635 15.8259 42.5204ZM84.1991 46.8937V50.0624H72.0255V45.821L72.7034 45.7137C74.2032 45.4818 75.1382 45.3247 75.1945 45.2872C75.232 45.262 75.5395 45.2122 75.8845 45.1685C76.2295 45.1245 76.5436 45.0674 76.5747 45.0422C76.6128 45.0178 76.9074 44.961 77.2338 44.917C77.5601 44.8795 77.9866 44.8039 78.1755 44.7541C78.3634 44.7104 78.7589 44.641 79.0534 44.6037C79.3488 44.5653 79.6434 44.5093 79.7126 44.4839C79.7818 44.4531 80.0951 44.3962 80.4028 44.3522C80.7168 44.3147 81.0676 44.2585 81.1872 44.2203C81.3059 44.1893 81.7584 44.1016 82.1914 44.0322C82.6245 43.9631 83.1893 43.8697 83.4464 43.8256C83.7034 43.7751 83.9795 43.7376 84.0609 43.7312L84.1991 43.7247V46.8937ZM32.2411 49.6922V53.4512H38.5161V59.0364H32.2353L32.2599 64.8535C32.2793 71.1222 32.2661 70.8145 32.6057 71.586C32.8628 72.1826 33.5903 72.7912 34.2178 72.9418C34.3245 72.967 34.4441 73.0168 34.4945 73.0549C34.6132 73.1487 37.1549 73.1487 37.268 73.0485C37.3176 73.011 37.5438 72.9606 37.7822 72.9353L38.203 72.8914V78.3951L38.033 78.4701C37.8768 78.5391 37.1549 78.6522 36.1636 78.7712C34.7518 78.9347 32.1784 78.9535 32.0278 78.7962C31.9903 78.7653 31.8903 78.7401 31.7959 78.7401C31.5509 78.7401 30.5345 78.5514 30.4588 78.4951C30.4213 78.4701 30.2522 78.4072 30.0763 78.3699C29.9072 78.326 29.7378 78.2689 29.6997 78.2445C29.6686 78.2128 29.5247 78.1566 29.3863 78.1126C29.248 78.0689 29.1226 78.0118 29.1038 77.9931C29.0851 77.9743 28.972 77.9051 28.8524 77.836C28.3316 77.5601 28.1753 77.4601 27.8986 77.2272C27.7359 77.0956 27.5853 76.9833 27.5536 76.9833C27.4909 76.9766 27.0141 76.4558 26.638 75.9791C26.3493 75.6087 25.922 74.8999 25.7778 74.5353C25.7274 74.4166 25.6713 74.3033 25.6526 74.2845C25.6274 74.2658 25.5647 74.0714 25.502 73.8451C25.4451 73.6197 25.3701 73.3812 25.3384 73.312C25.3076 73.2429 25.2318 72.9606 25.1822 72.6847C25.129 72.4224 25.0723 72.1609 25.0122 71.9001C24.9682 71.7122 24.9372 69.5026 24.9184 65.3239L24.8934 59.0364H21.2597V53.4512H24.8999V47.1256L25.3261 47.0818C25.5582 47.0572 25.7778 47.0133 25.8095 46.9881C25.847 46.9628 26.1547 46.9068 26.4997 46.8626C26.8447 46.8189 27.1588 46.7553 27.1899 46.731C27.2274 46.7058 27.6228 46.6364 28.0686 46.5803C28.5203 46.5168 28.9159 46.4485 28.9468 46.4233C28.9843 46.3981 29.1918 46.3541 29.4172 46.3354C29.7121 46.3 30.0054 46.252 30.2961 46.1914C30.9676 46.0531 32.1409 45.8706 32.1972 45.9024C32.2224 45.9147 32.2411 47.622 32.2411 49.6922ZM53.0434 52.8547C53.9216 52.9051 54.9136 53.0183 54.9884 53.0745C55.0259 53.0995 55.1766 53.1437 55.3336 53.1624C55.6916 53.2193 56.5641 53.4764 57.0905 53.6895C57.5301 53.8656 58.5091 54.3545 58.6595 54.4808C58.7101 54.5183 58.8224 54.5931 58.9103 54.6312C58.998 54.6751 59.2749 54.8941 59.5188 55.1083C59.7638 55.3278 59.9901 55.516 60.0209 55.5281C60.1155 55.572 61.232 56.9278 61.232 57.0026C61.232 57.0214 61.2891 57.1224 61.3582 57.216C61.4899 57.4047 62.0482 58.4903 62.0482 58.5595C62.0482 58.5839 62.0986 58.7222 62.167 58.8664C62.2297 59.0112 62.3053 59.231 62.3307 59.3497C62.3557 59.4693 62.3999 59.5947 62.4243 59.632C62.4493 59.6639 62.5063 59.8641 62.5503 60.0716C62.5878 60.2783 62.6382 60.4924 62.657 60.542C62.6822 60.5924 62.7382 60.8618 62.7888 61.1385C62.8638 61.5526 62.8824 63.1151 62.9076 70.0301L62.9328 78.426H56.087L56.0807 77.6856C56.0741 77.2843 56.0553 76.7008 56.0301 76.3931L55.9926 75.8285L55.8105 76.0791C55.5224 76.4624 54.5743 77.3656 54.1982 77.6164C53.3755 78.1566 53.1566 78.2876 52.9303 78.3635C52.792 78.401 52.6105 78.4766 52.5226 78.526C52.4282 78.5701 52.1963 78.6458 52.0076 78.6833C51.8195 78.727 51.6316 78.7841 51.5999 78.8085C51.2801 79.047 47.3266 79.0412 47.0188 78.8028C46.988 78.7776 46.7618 78.7216 46.5168 78.6774C46.2784 78.6337 45.9959 78.5643 45.8895 78.5139C45.7895 78.4701 45.5191 78.3568 45.3001 78.2689C45.0478 78.1592 44.8007 78.0378 44.5597 77.9051C44.3929 77.8022 44.2233 77.7039 44.0509 77.6106C43.7874 77.4658 43.6995 77.3843 42.9843 76.6689C42.2501 75.9349 42.1557 75.8349 42.1557 75.7658C42.1557 75.7406 42.0743 75.6022 41.9807 75.4581C41.8797 75.3141 41.7357 75.0503 41.6599 74.8803C41.5851 74.7053 41.4843 74.4978 41.4403 74.4099C41.3907 74.322 41.3216 74.0966 41.2776 73.9078C41.2336 73.7197 41.1776 73.5318 41.1522 73.5001C41.083 73.4122 40.9634 72.521 40.9634 72.132C40.9634 71.9508 40.9326 71.7683 40.8951 71.731C40.8195 71.6551 40.838 71.4045 41.0326 69.8916C41.0701 69.597 41.127 69.327 41.1522 69.296C41.1774 69.2585 41.2334 69.0949 41.2709 68.9258C41.3524 68.5993 41.5226 68.1729 41.6982 67.8522C41.7545 67.7458 41.8295 67.6016 41.8676 67.526C41.9051 67.4447 41.9555 67.382 41.9864 67.382C42.0116 67.382 42.0303 67.3445 42.0303 67.3006C42.0303 67.2314 42.7205 66.3339 42.8401 66.2524C42.8651 66.2337 42.9093 66.1712 42.928 66.1083C42.953 66.0391 43.028 65.9766 43.0972 65.9578C43.1664 65.9391 43.2226 65.9008 43.2226 65.8756C43.2226 65.8131 44.2772 64.9845 44.6345 64.7776C44.8916 64.6208 45.4695 64.3262 46.3101 63.9241C46.4297 63.8616 47.6024 63.4854 48.1176 63.3408C48.3055 63.2845 48.6759 63.2087 48.933 63.1714C49.1901 63.1274 49.4351 63.077 49.4668 63.0526C49.5043 63.0272 49.8803 62.9703 50.3141 62.9328C50.747 62.8953 51.2801 62.8328 51.5061 62.801C52.3974 62.6693 55.528 62.6945 55.8609 62.8328C55.9741 62.8824 55.9797 62.8578 55.9359 62.3241C55.9114 62.0166 55.8674 61.7528 55.8422 61.7341C55.8105 61.7153 55.773 61.5966 55.7478 61.4706C55.7038 61.2385 55.4653 60.7308 55.2399 60.3849C55.0951 60.166 54.4863 59.5376 54.4172 59.5376C54.3928 59.5376 54.2861 59.4751 54.1788 59.3937C53.9028 59.1926 53.4578 58.9924 53.1876 58.942C53.0557 58.9168 52.9491 58.8728 52.9491 58.8476C52.9491 58.5718 48.8955 58.5279 47.6782 58.7979C47.5211 58.8289 47.1574 58.8979 46.8626 58.9485C46.5672 58.9981 46.2726 59.0672 46.2034 59.0991C46.1343 59.1299 45.9089 59.187 45.7014 59.2243C45.4947 59.2618 45.2684 59.3187 45.1993 59.3497C45.1301 59.3814 44.8795 59.4506 44.6409 59.5068C44.4026 59.5631 44.1763 59.6256 44.1389 59.6572C44.1013 59.6826 43.9322 59.7451 43.7564 59.7891C43.5872 59.8331 43.4114 59.8958 43.3797 59.921C43.3422 59.9462 43.1728 60.0022 43.0028 60.0464C42.8278 60.0839 42.5828 60.1716 42.4576 60.2343C42.3257 60.3035 42.2061 60.3539 42.1874 60.3539C42.1686 60.3539 42.1557 59.042 42.1557 57.4422C42.1557 55.1766 42.1751 54.5181 42.2378 54.4676C42.2818 54.4301 42.4576 54.3676 42.6268 54.3237C42.8026 54.2862 42.972 54.2293 43.0028 54.2041C43.0411 54.1789 43.2478 54.1041 43.4741 54.047C43.6995 53.9843 43.9126 53.9158 43.9445 53.8908C43.982 53.8589 44.1763 53.8085 44.3774 53.7654C44.5849 53.7216 44.7982 53.6645 44.8478 53.6335C44.9047 53.6085 45.1618 53.5391 45.4191 53.4831C45.6189 53.444 45.8178 53.4001 46.0155 53.3512C46.0839 53.3316 46.4355 53.2756 46.7993 53.2249C47.1638 53.1754 47.5463 53.1062 47.6464 53.0745C48.0109 52.962 51.2986 52.7547 52.0393 52.7987C52.2459 52.8108 52.6984 52.8362 53.0434 52.8549V52.8547ZM18.4357 65.9391V78.426H11.0945V53.4512H18.4357V65.9391ZM73.9078 61.232C73.9078 68.662 73.9395 70.0993 74.0901 70.3001C74.1209 70.3312 74.1593 70.4564 74.1845 70.5762C74.2724 71.0464 74.6801 71.731 75.1439 72.1949C75.3888 72.4462 75.6647 72.6658 75.7526 72.6903C75.847 72.7099 75.9161 72.7474 75.9161 72.7726C75.9161 72.797 76.1359 72.8849 76.4053 72.9726C76.8074 73.0989 77.0205 73.1233 77.648 73.1233C78.0876 73.1233 78.4699 73.0924 78.5578 73.0549C78.6391 73.0112 78.8336 72.9483 78.9907 72.9043C79.1478 72.8606 79.4303 72.7287 79.6182 72.6024C79.9697 72.377 80.6224 71.7749 80.6224 71.6739C80.6224 71.6431 80.7103 71.5047 80.8105 71.3728C80.917 71.2345 80.9993 71.097 80.9993 71.0595C80.9993 71.0212 81.0555 70.8895 81.118 70.7641C81.1872 70.6387 81.2622 70.4256 81.2874 70.2937C81.3061 70.1553 81.3499 70.0178 81.3818 69.9862C81.5388 69.7851 81.5641 68.5181 81.5641 61.157V53.4512H88.9053V78.4262H85.4291C82.7124 78.4262 81.9336 78.4074 81.8963 78.3447C81.8709 78.3072 81.8401 77.7108 81.8272 77.027C81.8147 76.3493 81.7832 75.791 81.7586 75.791C81.7336 75.791 81.6578 75.866 81.583 75.9601C81.2313 76.4372 80.6788 76.9768 79.813 77.692C79.6876 77.792 79.4305 77.9303 78.8657 78.2064C78.6084 78.3316 78.3261 78.4764 78.2382 78.5203C78.1503 78.5643 77.912 78.6335 77.7043 78.6774C77.4976 78.7214 77.3153 78.7774 77.2966 78.8028C77.2341 78.8966 76.1232 78.9908 75.0253 78.9908C73.9461 78.9908 73.0674 78.9158 72.8101 78.8085C72.7409 78.7776 72.5026 78.702 72.2763 78.6458C72.0509 78.5895 71.8434 78.5139 71.8059 78.4887C71.7751 78.4635 71.6245 78.4008 71.4797 78.3568C71.3291 78.3193 71.2103 78.2633 71.2103 78.2381C71.2103 78.2128 71.0972 78.1568 70.9588 78.1126C70.8214 78.0689 70.708 78.0118 70.708 77.9866C70.708 77.9622 70.6388 77.9116 70.5576 77.8741C70.018 77.6293 68.7941 76.481 68.2797 75.7406C67.9655 75.2889 67.4822 74.3847 67.3822 74.0526C67.3447 73.9208 67.2691 73.7264 67.2251 73.6256C67.1811 73.5189 67.1063 73.2935 67.068 73.1235C67.0305 72.9485 66.9743 72.766 66.9426 72.7035C66.9118 72.6464 66.8547 72.3518 66.8174 72.0443C66.7799 71.7431 66.7107 71.4356 66.6732 71.3664C66.6163 71.2726 66.5911 69.0322 66.5788 62.3428L66.5601 53.4512H73.908L73.9078 61.232Z" fill="#FF6200"/>
<path d="M52.2277 67.3258C51.921 67.3569 51.6068 67.4071 51.5377 67.4383C51.4685 67.4765 51.2431 67.5325 51.0356 67.5765C50.8354 67.614 50.5652 67.6896 50.4397 67.7458C49.4981 68.1535 49.0402 68.4237 48.7268 68.75C48.4256 69.0642 48.1237 69.6477 48.0741 70.0114C48.061 70.1367 48.017 70.3002 47.9797 70.3687C47.9106 70.5135 47.9358 70.9587 48.0489 71.5421C48.1741 72.176 48.6764 72.9483 49.1214 73.1804C49.9125 73.5881 50.0631 73.6506 50.5027 73.72C51.2927 73.8387 52.7991 73.7704 53.1254 73.5946C53.1816 73.5629 53.4143 73.4562 53.6397 73.356C53.866 73.2496 54.1606 73.0794 54.2989 72.9727C54.4372 72.8662 54.5935 72.7408 54.6504 72.6969C55.0077 72.4275 55.667 71.3354 55.7548 70.8837C55.7735 70.7706 55.8239 70.6387 55.8614 70.5883C55.9052 70.5321 55.9364 69.9544 55.9493 68.9192L55.9743 67.3379L55.6352 67.3006C55.1768 67.2437 52.9185 67.2631 52.2277 67.3258Z" fill="#FF6200"/>
</g>
</g>
<defs>
<clipPath id="clip0_6_47002">
<rect width="100" height="100" fill="white"/>
</clipPath>
<clipPath id="clip1_6_47002">
<rect width="100" height="100" fill="white"/>
</clipPath>
</defs>
</svg>
