<svg width="100" height="100" viewBox="0 0 100 100" fill="none" xmlns="http://www.w3.org/2000/svg">
<rect width="100" height="100" fill="#FF6201"/>
<g clip-path="url(#clip0_6_47001)">
<path d="M46.7375 25.0596C45.3003 25.0938 44.2461 25.1443 42.3132 25.2635C41.4193 25.3168 40.4435 25.3954 39.7563 25.4641C39.5838 25.4829 39.2229 25.5174 38.9563 25.5427C37.8362 25.6526 36.1731 25.8624 35.4737 25.9817C35.326 26.0069 35.1095 26.0415 34.9874 26.0603C34.8681 26.0761 34.6546 26.1135 34.5166 26.1388C34.3787 26.164 34.1464 26.208 33.9991 26.2328C33.4811 26.3207 32.5997 26.4996 32.1008 26.6189C31.9625 26.6535 31.7147 26.7129 31.5516 26.7508C31.3883 26.7882 31.2412 26.8228 31.2224 26.826C30.3027 27.0454 29.3897 27.4881 28.687 28.0621C28.0029 28.6176 27.3914 29.5148 27.0838 30.4059C27.0338 30.5439 26.9832 30.6851 26.9678 30.7196C26.9145 30.8389 26.6822 31.8427 26.5157 32.6651C26.491 32.803 26.447 33.0068 26.4218 33.1199C26.3965 33.2327 26.3624 33.4304 26.3403 33.559C26.3213 33.6876 26.2964 33.8446 26.2805 33.904C26.2333 34.0832 26.0421 35.3066 25.9196 36.1945C25.8004 37.0543 25.7219 37.6789 25.6531 38.3124C25.6186 38.6229 25.584 38.9272 25.5778 38.987C25.5685 39.0464 25.54 39.3509 25.5119 39.6617C25.4867 39.9721 25.4493 40.3518 25.4301 40.5089C25.3642 41.0859 25.201 43.5993 25.1197 45.3721C25.057 46.6864 25.0163 49.501 25.0382 51.0354C25.0602 52.9491 25.107 54.6593 25.151 55.2554C25.1669 55.4967 25.1981 56.0054 25.2169 56.3849C25.2356 56.7645 25.2608 57.2508 25.2767 57.4672C25.3488 58.5529 25.4053 59.2649 25.4333 59.4908C25.4493 59.6291 25.4867 59.9962 25.5119 60.3034C25.5371 60.611 25.5746 60.9781 25.5904 61.1192C25.6092 61.2605 25.6438 61.5647 25.6686 61.7971C25.7471 62.5406 25.8069 63.0268 25.857 63.3503C25.8822 63.5228 25.9262 63.8178 25.951 64.009C26.0421 64.6991 26.1487 65.3705 26.2647 65.9858C26.2899 66.1237 26.3306 66.3561 26.3591 66.5034C26.4124 66.817 26.5348 67.4416 26.6227 67.8367C26.9238 69.2207 27.0556 69.6344 27.4101 70.3156C27.5073 70.5036 27.6327 70.7233 27.6893 70.8018C27.7425 70.8804 27.8211 70.9931 27.8618 71.0529C28.0407 71.3194 28.5523 71.8403 28.8347 72.0413C28.8815 72.0755 28.9726 72.1413 29.032 72.1886C29.0951 72.2386 29.1545 72.2764 29.1703 72.2764C29.1829 72.2764 29.2143 72.2984 29.2391 72.3237C29.3616 72.4429 30.2246 72.8539 30.5945 72.9637C30.6637 72.9857 30.7483 73.0137 30.7829 73.0296C30.8647 73.0671 31.3256 73.1831 31.8812 73.3088C32.1228 73.3654 32.3706 73.4247 32.4301 73.4406C32.5745 73.4781 33.4843 73.6599 34.1716 73.7857C34.5667 73.8577 35.3357 73.9802 35.8187 74.0493C36.0006 74.0741 36.2329 74.1087 36.3364 74.1274C36.716 74.1934 38.2849 74.3757 39.27 74.4696C39.6245 74.5042 40.0606 74.5449 40.2425 74.5636C40.5375 74.5949 40.8387 74.6202 42.2819 74.7236C42.4983 74.7394 42.9912 74.7676 43.3801 74.7866C43.7692 74.8054 44.312 74.8335 44.5882 74.8493C46.8221 74.9779 53.2101 74.9779 55.4126 74.8493C55.6889 74.8306 56.2317 74.8054 56.6207 74.7866C57.2889 74.7554 57.5338 74.7394 58.5816 74.6609C59.9243 74.5576 61.8982 74.3659 62.5664 74.2719C62.7576 74.2438 63.0872 74.1998 63.3037 74.1714C64.1037 74.0681 65.2019 73.9016 65.8293 73.7857C66.5166 73.6599 67.4264 73.4781 67.5708 73.4406C67.6302 73.4247 67.878 73.3654 68.1198 73.3088C68.6625 73.1863 69.1333 73.0671 69.2179 73.0296C69.3222 72.9921 69.4268 72.9554 69.5317 72.9197C69.7889 72.8352 70.6425 72.4303 70.7145 72.3611C70.7365 72.3391 70.7992 72.2923 70.8525 72.2606C71.0974 72.1071 71.2101 72.0193 71.4331 71.8183C71.6842 71.5891 72.0325 71.2129 72.1171 71.0842C72.1452 71.0403 72.2205 70.9337 72.2831 70.849C72.3491 70.7612 72.4024 70.6827 72.4024 70.6701C72.4024 70.6573 72.4528 70.5695 72.5122 70.4755C72.5721 70.3815 72.6441 70.2432 72.6726 70.1679C72.7039 70.0959 72.7351 70.0173 72.7478 70.0019C72.8072 69.9234 73.027 69.2988 73.121 68.9443C73.2687 68.3954 73.5445 67.0995 73.645 66.4874C73.6702 66.3308 73.6983 66.1835 73.7077 66.1583C73.7362 66.0891 73.9088 65.0129 74.0653 63.9151C74.0999 63.6734 74.1345 63.4317 74.1439 63.3816C74.1692 63.2371 74.2819 62.274 74.3323 61.7658C74.3571 61.5147 74.3917 61.2259 74.4104 61.1224C74.4296 61.0187 74.4638 60.6802 74.489 60.3693C74.5142 60.0589 74.5488 59.676 74.5643 59.5221C74.583 59.3655 74.6115 59.0079 74.6301 58.7221C74.6489 58.4365 74.6773 58.0854 74.6928 57.9378C74.7119 57.7904 74.7462 57.2476 74.7714 56.7299C74.7998 56.212 74.8312 55.5752 74.8499 55.3181C74.9911 53.0369 74.9911 47.0506 74.8499 44.6976C74.834 44.4306 74.806 43.9069 74.7872 43.5366C74.7681 43.1663 74.74 42.6768 74.7242 42.4539C74.7054 42.2281 74.6648 41.6727 74.6301 41.2148C74.5955 40.7567 74.561 40.3266 74.5516 40.2579C74.5422 40.1886 74.5142 39.8843 74.489 39.5832C74.4638 39.2821 74.4356 38.9996 74.4263 38.9558C74.4169 38.9118 74.3823 38.6229 74.3477 38.3124C74.2665 37.5624 74.1658 36.7344 74.1439 36.6372C74.1345 36.5933 74.0999 36.3422 74.0653 36.0846C73.9116 34.9115 73.6264 33.2766 73.3814 32.163C73.3468 32.0059 73.2906 31.7519 73.2561 31.5982C73.1681 31.1965 73.0644 30.7917 73.0302 30.7196C73.0144 30.6851 72.9863 30.6005 72.9643 30.5313C72.8951 30.2993 72.5468 29.5242 72.459 29.4017C72.4463 29.383 72.3463 29.2357 72.2392 29.0726C72.0166 28.7368 71.4457 28.1407 71.1036 27.8896C70.4261 27.3908 69.6728 27.0518 68.7004 26.8134C68.5328 26.7724 68.3655 26.7305 68.1983 26.6877C68.0823 26.6535 67.8499 26.6031 67.3511 26.4996C67.2097 26.47 67.0685 26.4396 66.9275 26.4085C66.322 26.2612 64.3515 25.941 63.0685 25.7779C62.8108 25.7465 62.557 25.7119 62.5037 25.6997C62.4093 25.6806 61.9544 25.6338 61.0291 25.5427C60.7715 25.5174 60.4171 25.4799 60.2446 25.4641C60.0721 25.4454 59.7613 25.4172 59.5545 25.3982C59.3473 25.3828 59.0085 25.3542 58.8014 25.3388C58.0986 25.279 56.1471 25.1663 55.0676 25.119C52.9809 25.028 49.1281 24.9998 46.7375 25.0596ZM32.9135 46.2601C32.9322 46.2755 33.0233 46.304 33.1141 46.3259C33.2838 46.3666 33.5222 46.4765 33.7007 46.5957C33.842 46.6897 34.1748 47.0473 34.2403 47.1731C34.2721 47.2358 34.3063 47.2923 34.3156 47.3017C34.3254 47.3111 34.3535 47.3737 34.3787 47.4429C34.4006 47.5116 34.4287 47.5841 34.4446 47.5995C34.4852 47.6593 34.5325 48.0324 34.5325 48.3088C34.5325 48.5786 34.4914 48.8955 34.4381 49.0115C34.2689 49.4005 34.1871 49.529 33.9739 49.7553C33.7761 49.9591 33.6947 50.0218 33.4249 50.1537C33.2051 50.2635 33.0481 50.3201 32.9228 50.3322C32.8223 50.3448 32.7344 50.3668 32.725 50.3795C32.7031 50.4173 32.0223 50.4173 32.0223 50.3795C32.0223 50.3668 31.9438 50.3448 31.8432 50.3322C31.7461 50.3201 31.624 50.2916 31.5706 50.2696C31.5026 50.239 31.4335 50.2108 31.3636 50.1849C31.3038 50.1631 31.2472 50.1378 31.2378 50.1284C31.2285 50.1159 31.1813 50.0878 31.1279 50.0626C30.9461 49.9717 30.5696 49.5542 30.4598 49.3252C30.4 49.2028 30.3439 49.0835 30.328 49.0587C30.2214 48.8452 30.2026 47.8726 30.3027 47.6467C30.3313 47.5869 30.3719 47.4868 30.3939 47.4269C30.4158 47.3676 30.4411 47.311 30.4504 47.3017C30.4598 47.2923 30.4973 47.2292 30.5319 47.1605C30.5917 47.0441 30.9648 46.6426 31.0181 46.6426C31.0306 46.6426 31.0592 46.6206 31.0812 46.5926C31.1405 46.5265 31.4449 46.3792 31.6301 46.3321C31.7179 46.3101 31.8152 46.2787 31.8498 46.2629C31.8844 46.2474 31.969 46.2316 32.0378 46.2222C32.2229 46.2035 32.8727 46.2316 32.9135 46.2601ZM67.1 48.4467V50.0311H61.0132V47.9104L61.3522 47.8567C62.1021 47.7408 62.5696 47.6622 62.5977 47.6435C62.6165 47.6309 62.7702 47.606 62.9427 47.5841C63.1152 47.5621 63.2723 47.5336 63.2878 47.521C63.3069 47.5088 63.4542 47.4804 63.6174 47.4584C63.7805 47.4396 63.9938 47.4018 64.0882 47.3769C64.1822 47.3551 64.3799 47.3204 64.5272 47.3017C64.6749 47.2826 64.8222 47.2545 64.8568 47.2418C64.8914 47.2264 65.048 47.198 65.2019 47.176C65.3589 47.1572 65.5343 47.1291 65.5941 47.1101C65.6535 47.0945 65.8797 47.0507 66.0962 47.016C66.3127 46.9814 66.5951 46.9347 66.7237 46.9127C66.8522 46.8874 66.9902 46.8687 67.031 46.8655L67.1 46.8622V48.4467ZM41.1211 49.846V51.7255H44.2586V54.5181H41.1181L41.1304 57.4266C41.1401 60.561 41.1336 60.4071 41.3033 60.7929C41.4319 61.0912 41.7956 61.3955 42.1094 61.4708C42.1627 61.4834 42.2225 61.5083 42.2477 61.5273C42.3071 61.5742 43.5779 61.5742 43.6345 61.5241C43.6593 61.5054 43.7724 61.4802 43.8916 61.4676L44.102 61.4456V64.1974L44.017 64.2349C43.9389 64.2694 43.5779 64.326 43.0823 64.3855C42.3764 64.4672 41.0897 64.4766 41.0144 64.398C40.9956 64.3825 40.9456 64.3699 40.8985 64.3699C40.776 64.3699 40.2677 64.2756 40.2299 64.2474C40.2112 64.2349 40.1266 64.2035 40.0387 64.1848C39.9541 64.1629 39.8694 64.1343 39.8503 64.1221C39.8348 64.1063 39.7628 64.0782 39.6937 64.0562C39.6245 64.0343 39.5618 64.0058 39.5524 63.9964C39.543 63.987 39.4865 63.9524 39.4267 63.9179C39.1663 63.7799 39.0881 63.7299 38.9498 63.6135C38.8685 63.5477 38.7931 63.4915 38.7773 63.4915C38.746 63.4882 38.5075 63.2278 38.3195 62.9894C38.1751 62.8042 37.9615 62.4498 37.8894 62.2676C37.8642 62.2082 37.8362 62.1515 37.8268 62.1421C37.8142 62.1328 37.7828 62.0356 37.7515 61.9224C37.723 61.8097 37.6855 61.6905 37.6697 61.6559C37.6543 61.6213 37.6164 61.4802 37.5916 61.3422C37.565 61.2111 37.5367 61.0803 37.5066 60.9499C37.4846 60.856 37.4691 59.7512 37.4597 57.6618L37.4472 54.5181H35.6303V51.7255H37.4504V48.5627L37.6636 48.5408C37.7796 48.5285 37.8894 48.5065 37.9052 48.4939C37.924 48.4813 38.0778 48.4533 38.2503 48.4312C38.4228 48.4093 38.5799 48.3776 38.5954 48.3654C38.6142 48.3528 38.8119 48.3181 39.0348 48.2901C39.2606 48.2583 39.4585 48.2241 39.4739 48.2115C39.4926 48.1989 39.5964 48.1769 39.7091 48.1676C39.8565 48.1499 40.0032 48.1259 40.1486 48.0956C40.4843 48.0264 41.071 47.9352 41.0991 47.9511C41.1117 47.9572 41.1211 48.8109 41.1211 49.846ZM51.5222 51.4272C51.9613 51.4524 52.4573 51.509 52.4947 51.5371C52.5135 51.5496 52.5888 51.5717 52.6673 51.5811C52.8463 51.6095 53.2825 51.7381 53.5457 51.8446C53.7655 51.9327 54.255 52.1771 54.3302 52.2403C54.3555 52.259 54.4117 52.2964 54.4556 52.3155C54.4995 52.3374 54.6379 52.4469 54.7599 52.554C54.8824 52.6638 54.9955 52.7579 55.011 52.7639C55.0582 52.7859 55.6165 53.4638 55.6165 53.5012C55.6165 53.5106 55.645 53.5611 55.6796 53.6079C55.7454 53.7022 56.0246 54.2451 56.0246 54.2796C56.0246 54.2918 56.0498 54.361 56.084 54.4331C56.1153 54.5055 56.1531 54.6154 56.1658 54.6747C56.1783 54.7345 56.2004 54.7972 56.2126 54.8159C56.2251 54.8318 56.2537 54.9319 56.2756 55.0357C56.2944 55.139 56.3196 55.2461 56.329 55.2709C56.3416 55.2961 56.3696 55.4308 56.3949 55.5691C56.4324 55.7762 56.4417 56.5574 56.4543 60.0149L56.4669 64.2129H53.044L53.0408 63.8427C53.0375 63.642 53.0281 63.3503 53.0155 63.1964L52.9968 62.9141L52.9057 63.0394C52.7617 63.2311 52.2876 63.6827 52.0996 63.8081C51.6882 64.0782 51.5788 64.1437 51.4656 64.1816C51.3965 64.2004 51.3057 64.2382 51.2618 64.2629C51.2146 64.2849 51.0987 64.3228 51.0043 64.3415C50.9102 64.3634 50.8163 64.3919 50.8004 64.4041C50.6405 64.5234 48.6638 64.5205 48.5099 64.4013C48.4945 64.3887 48.3814 64.3607 48.2589 64.3386C48.1397 64.3167 47.9985 64.282 47.9452 64.2568C47.8952 64.2349 47.76 64.1783 47.6505 64.1343C47.5244 64.0795 47.4008 64.0188 47.2803 63.9524C47.1969 63.901 47.1121 63.8518 47.026 63.8052C46.8942 63.7328 46.8502 63.692 46.4926 63.3343C46.1255 62.9673 46.0784 62.9173 46.0784 62.8828C46.0784 62.8702 46.0376 62.801 45.9908 62.7289C45.9403 62.6569 45.8683 62.5251 45.8304 62.4401C45.793 62.3526 45.7426 62.2488 45.7206 62.2048C45.6958 62.1609 45.6613 62.0482 45.6393 61.9538C45.6173 61.8597 45.5893 61.7658 45.5766 61.7499C45.542 61.706 45.4822 61.2604 45.4822 61.0659C45.4822 60.9753 45.4668 60.884 45.448 60.8654C45.4102 60.8274 45.4195 60.7021 45.5168 59.9457C45.5355 59.7984 45.564 59.6634 45.5766 59.6479C45.5892 59.6291 45.6172 59.5473 45.636 59.4628C45.6767 59.2995 45.7618 59.0863 45.8496 58.926C45.8777 58.8728 45.9152 58.8007 45.9343 58.7629C45.953 58.7222 45.9782 58.6909 45.9937 58.6909C46.0063 58.6909 46.0156 58.6721 46.0156 58.6502C46.0156 58.6156 46.3607 58.1668 46.4205 58.1261C46.433 58.1167 46.4551 58.0855 46.4645 58.054C46.477 58.0194 46.5145 57.9882 46.5491 57.9788C46.5837 57.9694 46.6118 57.9503 46.6118 57.9377C46.6118 57.9064 47.1391 57.4921 47.3177 57.3887C47.4463 57.3103 47.7352 57.163 48.1555 56.9619C48.2153 56.9307 48.8017 56.7426 49.0593 56.6703C49.1532 56.6421 49.3385 56.6042 49.467 56.5856C49.5955 56.5636 49.718 56.5384 49.7339 56.5262C49.7526 56.5135 49.9406 56.4851 50.1575 56.4663C50.374 56.4476 50.6405 56.4163 50.7536 56.4004C51.1992 56.3345 52.7645 56.3471 52.931 56.4163C52.9875 56.4411 52.9903 56.4288 52.9685 56.1619C52.9562 56.0082 52.9342 55.8763 52.9216 55.8669C52.9057 55.8576 52.887 55.7982 52.8744 55.7352C52.8524 55.6191 52.7331 55.3653 52.6204 55.1923C52.548 55.0829 52.2437 54.7687 52.2091 54.7687C52.1969 54.7687 52.1436 54.7374 52.0899 54.6967C51.9519 54.5962 51.7294 54.4961 51.5943 54.4709C51.5283 54.4583 51.475 54.4363 51.475 54.4237C51.475 54.2858 49.4482 54.2638 48.8396 54.3988C48.7611 54.4143 48.5792 54.4488 48.4318 54.4741C48.2841 54.4989 48.1368 54.5335 48.1022 54.5494C48.0676 54.5648 47.9549 54.5934 47.8512 54.612C47.7478 54.6308 47.6347 54.6592 47.6001 54.6747C47.5655 54.6906 47.4402 54.7252 47.321 54.7533C47.2018 54.7814 47.0887 54.8127 47.0699 54.8285C47.0512 54.8412 46.9666 54.8724 46.8787 54.8944C46.7941 54.9164 46.7062 54.9478 46.6903 54.9604C46.6716 54.973 46.5869 55.001 46.5019 55.0231C46.4144 55.0418 46.2919 55.0857 46.2293 55.117C46.1633 55.1516 46.1036 55.1768 46.0942 55.1768C46.0848 55.1768 46.0784 54.5209 46.0784 53.721C46.0784 52.5882 46.088 52.2589 46.1194 52.2337C46.1414 52.2149 46.2293 52.1837 46.3139 52.1617C46.4018 52.143 46.4865 52.1145 46.5019 52.1019C46.5211 52.0893 46.6244 52.0519 46.7375 52.0234C46.8502 51.992 46.9568 51.9578 46.9727 51.9453C46.9915 51.9293 47.0887 51.9041 47.1892 51.8826C47.2929 51.8607 47.3996 51.8321 47.4244 51.8166C47.4528 51.8041 47.5814 51.7694 47.71 51.7414C47.81 51.7219 47.9094 51.6999 48.0082 51.6755C48.0424 51.6657 48.2182 51.6377 48.4001 51.6123C48.5824 51.5876 48.7737 51.553 48.8237 51.5371C49.006 51.4809 50.6498 51.3772 51.0201 51.3992C51.1235 51.4053 51.3497 51.418 51.5222 51.4273V51.4272ZM34.2183 57.9694V64.2129H30.5477V51.7255H34.2183V57.9694ZM61.9544 55.6159C61.9544 59.3309 61.9702 60.0495 62.0455 60.1499C62.061 60.1655 62.0801 60.2281 62.0927 60.288C62.1367 60.5231 62.3405 60.8654 62.5724 61.0973C62.6949 61.223 62.8328 61.3328 62.8768 61.3451C62.924 61.3548 62.9586 61.3736 62.9586 61.3862C62.9586 61.3984 63.0685 61.4423 63.2031 61.4862C63.4042 61.5493 63.5107 61.5615 63.8245 61.5615C64.0443 61.5615 64.2354 61.5461 64.2794 61.5273C64.32 61.5055 64.4173 61.474 64.4958 61.452C64.5744 61.4302 64.7156 61.3642 64.8096 61.3011C64.9853 61.1884 65.3117 60.8873 65.3117 60.8368C65.3117 60.8214 65.3556 60.7522 65.4057 60.6863C65.459 60.6171 65.5001 60.5484 65.5001 60.5296C65.5001 60.5105 65.5282 60.4446 65.5595 60.3819C65.5941 60.3192 65.6316 60.2127 65.6442 60.1467C65.6536 60.0776 65.6754 60.0088 65.6914 59.993C65.7699 59.8924 65.7825 59.2589 65.7825 55.5784V51.7255H69.4531V64.213H67.715C66.3567 64.213 65.9673 64.2036 65.9487 64.1722C65.936 64.1535 65.9205 63.8553 65.9141 63.5134C65.9078 63.1745 65.8921 62.8954 65.8798 62.8954C65.8673 62.8954 65.8294 62.9329 65.792 62.9799C65.6162 63.2185 65.3399 63.4883 64.907 63.8459C64.8443 63.8959 64.7157 63.965 64.4333 64.1031C64.3047 64.1657 64.1636 64.2381 64.1196 64.2601C64.0756 64.282 63.9565 64.3166 63.8526 64.3386C63.7493 64.3606 63.6581 64.3886 63.6488 64.4013C63.6175 64.4482 63.0621 64.4953 62.5131 64.4953C61.9736 64.4953 61.5342 64.4578 61.4055 64.4041C61.371 64.3887 61.2518 64.3509 61.1387 64.3228C61.026 64.2946 60.9222 64.2568 60.9035 64.2442C60.888 64.2316 60.8127 64.2003 60.7403 64.1783C60.665 64.1595 60.6056 64.1315 60.6056 64.1189C60.6056 64.1063 60.5491 64.0783 60.4799 64.0562C60.4112 64.0343 60.3545 64.0058 60.3545 63.9932C60.3545 63.981 60.3199 63.9557 60.2793 63.9369C60.0095 63.8145 59.3975 63.2404 59.1403 62.8702C58.9832 62.6443 58.7416 62.1922 58.6916 62.0262C58.6728 61.9603 58.635 61.8631 58.613 61.8127C58.5911 61.7593 58.5537 61.6466 58.5345 61.5616C58.5157 61.4741 58.4876 61.3829 58.4718 61.3516C58.4564 61.3231 58.4278 61.1758 58.4092 61.022C58.3904 60.8714 58.3558 60.7177 58.3371 60.6831C58.3087 60.6362 58.2961 59.516 58.2899 56.1713L58.2805 51.7255H61.9545L61.9544 55.6159Z" fill="white"/>
<path d="M51.1138 58.6628C50.9605 58.6783 50.8034 58.7034 50.7688 58.719C50.7342 58.7381 50.6215 58.7661 50.5178 58.7881C50.4177 58.8069 50.2826 58.8447 50.2199 58.8728C49.749 59.0766 49.5201 59.2117 49.3634 59.3749C49.2128 59.532 49.0619 59.8237 49.0371 60.0056C49.0305 60.0682 49.0085 60.15 48.9899 60.1842C48.9553 60.2566 48.9679 60.4793 49.0245 60.7709C49.0871 61.0879 49.3382 61.474 49.5607 61.5901C49.9562 61.7939 50.0315 61.8252 50.2513 61.8599C50.6463 61.9192 51.3996 61.8851 51.5627 61.7972C51.5908 61.7813 51.7072 61.728 51.8199 61.6779C51.933 61.6247 52.0803 61.5396 52.1495 61.4862C52.2186 61.433 52.2968 61.3703 52.3252 61.3483C52.5038 61.2136 52.8335 60.6676 52.8774 60.4417C52.8868 60.3852 52.912 60.3192 52.9307 60.294C52.9526 60.2659 52.9682 59.9771 52.9747 59.4595L52.9872 58.6688L52.8176 58.6502C52.5884 58.6217 51.4593 58.6314 51.1138 58.6628Z" fill="white"/>
</g>
<defs>
<clipPath id="clip0_6_47001">
<rect width="50" height="50" fill="white" transform="translate(25 25)"/>
</clipPath>
</defs>
</svg>
