<svg width="100" height="100" viewBox="0 0 100 100" fill="none" xmlns="http://www.w3.org/2000/svg">
<rect width="100" height="100" fill="#50B4E9"/>
<path d="M79 48.9677C79 38.5185 66.0148 30 50 30C33.983 30 21.0022 38.5185 21.0022 48.9677C21.0022 49.2375 21 49.9856 21 50.0799C21 61.1631 32.3464 70.1423 49.9956 70.1423C67.7567 70.1423 79 61.1674 79 50.0799V48.9677Z" fill="#28316B"/>
<path d="M77.8885 48.959C77.8885 58.8092 65.4079 66.7969 50.0052 66.7969C34.6068 66.7969 22.124 58.8092 22.124 48.959C22.124 39.1066 34.6068 31.1189 50.0052 31.1189C65.4079 31.1189 77.8885 39.1066 77.8885 48.959Z" fill="#50B4E9"/>
<path d="M40.7476 43.331C40.7322 43.3595 40.4536 43.6491 40.6335 43.8772C41.0745 44.441 42.4346 44.7613 43.8102 44.4542C44.6284 44.2699 45.6749 43.4363 46.6906 42.6311C47.7919 41.7558 48.8866 40.8783 49.9835 40.5317C51.1463 40.1609 51.89 40.3189 52.3836 40.4659C52.9233 40.6304 53.5595 40.9836 54.5708 41.7448C56.4794 43.1796 64.1512 49.8751 65.474 51.0334C66.5446 50.5508 71.2876 48.5062 77.7353 47.089C77.1758 43.6513 75.0829 40.5053 71.9129 37.9298C67.4945 39.7858 62.0934 40.7554 56.8129 38.1733C56.7866 38.1667 53.928 36.811 51.1068 36.879C46.9166 36.9755 45.1001 38.7898 43.1783 40.7094L40.7476 43.331Z" fill="white"/>
<path d="M65.1648 51.7612C65.0748 51.6822 56.146 43.8657 54.1211 42.3454C52.9518 41.4678 52.3002 41.2441 51.6158 41.1563C51.2582 41.1124 50.769 41.176 50.4223 41.2726C49.4834 41.5271 48.2527 42.3497 47.1601 43.2141C46.0281 44.118 44.9619 44.9648 43.9725 45.1885C42.7089 45.4715 41.1644 45.1359 40.458 44.6598C40.1728 44.469 39.9732 44.2452 39.8767 44.0214C39.6156 43.4159 40.0961 42.9355 40.1728 42.8521L42.6387 40.1888C42.9239 39.9036 43.2135 39.6162 43.5096 39.3332C42.7155 39.4385 41.9805 39.6426 41.2632 39.84C40.3703 40.0923 39.5125 40.3292 38.6416 40.3292C38.2796 40.3292 36.3359 40.0133 35.9673 39.9124C33.7384 39.2981 31.7793 38.708 28.8572 37.3413C25.3536 39.9497 23.0107 43.2119 22.335 46.8032C22.8373 46.937 23.6469 47.1761 23.9869 47.2507C31.9175 49.0145 34.3856 50.831 34.8353 51.2105C35.3201 50.6709 36.0178 50.3286 36.7988 50.3286C37.6785 50.333 38.4683 50.7718 38.9487 51.4519C39.4028 51.0921 40.0281 50.7893 40.8376 50.7893C41.2039 50.7893 41.5857 50.8551 41.9718 50.9868C42.8668 51.2917 43.3275 51.8884 43.5667 52.4303C43.8672 52.2921 44.2358 52.1912 44.6702 52.1934C45.098 52.1934 45.5433 52.2899 45.9886 52.483C47.4497 53.1104 47.6779 54.5495 47.5462 55.6311C47.6516 55.6179 47.7525 55.6135 47.8622 55.6135C49.5931 55.6157 51.0059 57.022 51.0037 58.7573C51.0037 59.2947 50.8655 59.7971 50.6286 60.2425C51.1002 60.5057 52.3024 61.1068 53.3555 60.973C54.2001 60.8655 54.5204 60.5781 54.6345 60.4158C54.7134 60.3061 54.7968 60.1745 54.7178 60.0801L52.4845 57.5945C52.4845 57.5945 52.1138 57.2479 52.2344 57.1119C52.3617 56.9759 52.5898 57.1733 52.7522 57.3071C53.8864 58.2593 55.2794 59.6918 55.2794 59.6918C55.3014 59.7094 55.3957 59.8893 55.9069 59.9814C56.35 60.0604 57.1332 60.0165 57.6773 59.5712C57.8133 59.4593 57.9515 59.3167 58.0656 59.1741C58.0568 59.1807 58.048 59.1894 58.0393 59.1938C58.6118 58.4611 57.9756 57.7196 57.9756 57.7196L55.365 54.7887C55.365 54.7887 54.9899 54.442 55.1171 54.3016C55.2312 54.1832 55.4725 54.3652 55.6348 54.5013C56.4619 55.1901 57.6312 56.366 58.75 57.4629C58.9694 57.6209 59.9544 58.2307 61.2576 57.3752C62.0473 56.8552 62.2053 56.219 62.1856 55.7364C62.1285 55.1002 61.6327 54.6461 61.6327 54.6461L58.0656 51.0614C58.0656 51.0614 57.6882 50.7389 57.8199 50.5765C57.9296 50.4383 58.1731 50.6358 58.3354 50.7718C59.4718 51.7217 62.5497 54.5429 62.5497 54.5429C62.5914 54.5737 63.6576 55.3305 64.9673 54.4925C65.439 54.1919 65.7395 53.74 65.7637 53.2157C65.8097 52.3009 65.1648 51.7612 65.1648 51.7612Z" fill="white"/>
<path d="M47.8609 56.3075C47.308 56.3009 46.7047 56.63 46.6236 56.5817C46.5797 56.5532 46.6587 56.3316 46.7113 56.2022C46.7618 56.0772 47.4901 53.8855 45.7153 53.1221C44.3552 52.5385 43.5259 53.1945 43.2407 53.4929C43.1639 53.5696 43.131 53.5631 43.1222 53.4643C43.0959 53.0694 42.9204 52.0011 41.7467 51.6435C40.0684 51.1323 38.9913 52.3016 38.7171 52.7228C38.5964 51.7685 37.7891 51.027 36.7997 51.0248C35.7247 51.0248 34.8516 51.8958 34.8516 52.9707C34.8516 54.0435 35.7225 54.9144 36.7975 54.9144C37.3196 54.9166 37.7935 54.7082 38.1423 54.3726C38.1532 54.3835 38.1576 54.4011 38.1511 54.4384C38.0699 54.9188 37.9207 56.6673 39.7525 57.3803C40.4875 57.6655 41.1105 57.4527 41.6282 57.0885C41.7818 56.981 41.8059 57.0271 41.784 57.1719C41.7182 57.6216 41.8016 58.5847 43.1529 59.1309C44.1797 59.55 44.7873 59.1222 45.1844 58.7536C45.3577 58.5957 45.406 58.6242 45.417 58.8655C45.463 60.1686 46.5446 61.1997 47.8587 61.2019C49.2101 61.2019 50.307 60.1094 50.307 58.758C50.307 57.4044 49.2123 56.3229 47.8609 56.3075Z" fill="white"/>
<path d="M47.8599 61.027C46.6336 61.027 45.6376 60.0727 45.5937 58.8617C45.5893 58.7564 45.5784 58.48 45.3458 58.48C45.2493 58.48 45.1637 58.5371 45.0694 58.6226C44.7974 58.8749 44.4551 59.1272 43.955 59.1272C43.7268 59.1272 43.4811 59.0745 43.22 58.9692C41.9257 58.4449 41.9081 57.5542 41.9608 57.1966C41.9739 57.1023 41.9783 57.0036 41.9147 56.9268L41.8335 56.8566H41.7546C41.6887 56.8566 41.6185 56.8807 41.5286 56.9465C41.1535 57.2098 40.7937 57.3348 40.4295 57.3348C40.2277 57.3348 40.0236 57.2975 39.8152 57.2164C38.1128 56.5538 38.2467 54.9458 38.33 54.4609C38.341 54.3622 38.3169 54.2876 38.2554 54.235L38.1348 54.1341L38.0229 54.2438C37.6894 54.5663 37.2551 54.7396 36.7987 54.7396C35.8247 54.7396 35.0283 53.9454 35.0283 52.9692C35.0283 51.9929 35.8269 51.2009 36.8009 51.2009C37.6828 51.2009 38.4353 51.8635 38.5472 52.7476L38.6086 53.2214L38.8675 52.82C38.8982 52.7717 39.6134 51.6902 40.9297 51.6902C41.1776 51.6902 41.4365 51.734 41.6953 51.813C42.7462 52.1311 42.9217 53.081 42.9502 53.4803C42.9699 53.7107 43.1323 53.7216 43.1652 53.7216C43.2529 53.7216 43.3231 53.6646 43.3692 53.6141C43.5667 53.4057 43.9966 53.0635 44.6723 53.0635C44.9817 53.0657 45.3085 53.1359 45.6464 53.2829C47.3137 53.9981 46.5568 56.1173 46.548 56.137C46.4054 56.488 46.4011 56.6438 46.5349 56.7315L46.6007 56.7645H46.649C46.7235 56.7645 46.8157 56.7315 46.9714 56.6789C47.1974 56.5999 47.5396 56.4836 47.8599 56.4836H47.8621C49.1148 56.499 50.1349 57.5169 50.1349 58.7586C50.1327 60.0091 49.1126 61.027 47.8599 61.027ZM65.5092 50.828C62.7603 48.4258 56.4026 42.8974 54.6783 41.6052C53.6955 40.8659 53.0242 40.4732 52.4362 40.2999C52.1708 40.2209 51.8044 40.1288 51.3327 40.1288C50.8962 40.1288 50.4267 40.2078 49.9331 40.3635C48.8186 40.7145 47.713 41.5964 46.638 42.4476L46.5853 42.4915C45.585 43.2857 44.5539 44.1084 43.7729 44.2817C43.4306 44.3584 43.0796 44.3979 42.7308 44.3979C41.8555 44.3979 41.0701 44.1456 40.7761 43.7683C40.7257 43.7069 40.7586 43.6082 40.8705 43.4612L40.8858 43.4414L43.3056 40.833C45.201 38.9397 46.9912 37.1474 51.1134 37.0531C51.1814 37.0509 51.2516 37.0487 51.3196 37.0487C53.8841 37.0531 56.4487 38.2004 56.7361 38.332C59.1427 39.5079 61.6239 40.1046 64.1205 40.1068C66.7223 40.1068 69.4054 39.4619 72.2266 38.1631C71.9107 37.8977 71.5816 37.641 71.246 37.3865C68.767 38.4615 66.4064 39.0055 64.1271 39.0055C61.7994 39.0012 59.474 38.4417 57.2187 37.3404C57.0981 37.2856 54.2681 35.9474 51.3196 35.9474C51.2428 35.9474 51.166 35.9474 51.0892 35.9496C47.6274 36.0307 45.6771 37.2615 44.3652 38.3364C43.0884 38.3693 41.9893 38.6765 41.0109 38.9507C40.1355 39.192 39.3831 39.4026 38.6481 39.4026C38.3432 39.4026 37.7991 39.3763 37.7509 39.3741C36.904 39.3478 32.6415 38.3035 29.2498 37.018C28.9032 37.2637 28.5698 37.5159 28.2473 37.7748C31.7903 39.2249 36.1011 40.3504 37.4613 40.4359C37.8386 40.4644 38.2423 40.5061 38.6459 40.5061C39.5454 40.5061 40.4427 40.2538 41.3136 40.0125C41.827 39.8655 42.393 39.7098 42.9875 39.5935C42.8295 39.7514 42.6716 39.9094 42.5114 40.0695L40.0522 42.7284C39.8613 42.9237 39.4379 43.4458 39.7165 44.0886C39.8262 44.3475 40.0478 44.5954 40.3637 44.806C40.9494 45.2009 41.9981 45.4663 42.9721 45.4663C43.3407 45.4685 43.6939 45.4312 44.0142 45.3566C45.0453 45.1285 46.1246 44.2663 47.2698 43.3559C48.1824 42.6297 49.479 41.7105 50.4706 41.4385C50.7492 41.3639 51.0914 41.3178 51.3657 41.3178C51.4468 41.32 51.5236 41.32 51.5938 41.3288C52.2498 41.4144 52.886 41.6359 54.018 42.4871C56.0363 44.003 64.9673 51.8174 65.055 51.8942C65.0616 51.8986 65.6298 52.3878 65.5903 53.2083C65.5684 53.6624 65.3161 54.0661 64.8773 54.3469C64.4956 54.5882 64.1007 54.711 63.7058 54.711C63.1069 54.711 62.6967 54.4302 62.6704 54.4105C62.6353 54.3842 59.5771 51.5783 58.4495 50.6371C58.2718 50.488 58.0985 50.3541 57.923 50.3541C57.8264 50.3541 57.7431 50.3936 57.686 50.4638C57.5083 50.6832 57.708 50.986 57.9427 51.1856L61.5186 54.7747C61.523 54.7791 61.964 55.1937 62.01 55.7465C62.0385 56.341 61.7533 56.839 61.161 57.2273C60.7398 57.506 60.3142 57.6464 59.8952 57.6464C59.3445 57.6464 58.9628 57.3963 58.8751 57.3348L58.3639 56.8325C57.425 55.9089 56.4575 54.9546 55.7511 54.3644C55.5778 54.2196 55.3935 54.088 55.218 54.088C55.1302 54.088 55.0513 54.1231 54.992 54.1845C54.9109 54.2745 54.8538 54.4346 55.0556 54.7023C55.139 54.8142 55.2355 54.9041 55.2355 54.9041L57.8462 57.8328C57.8681 57.8614 58.3815 58.4734 57.9032 59.0833L57.8111 59.2018C57.7321 59.2873 57.6487 59.3641 57.5698 59.4343C57.1244 59.8007 56.5299 59.838 56.2951 59.838C56.1679 59.838 56.0451 59.827 55.9419 59.8073C55.6831 59.7634 55.5098 59.691 55.4286 59.5923L55.3979 59.5572C55.2531 59.4124 53.939 58.0676 52.8509 57.1615C52.7083 57.0431 52.5284 56.8895 52.3441 56.8895C52.252 56.8895 52.1708 56.9268 52.1094 56.9948C51.8922 57.2317 52.2147 57.5849 52.3529 57.7122L54.5796 60.1649C54.5774 60.1868 54.5467 60.2394 54.4918 60.3162C54.4129 60.4281 54.143 60.698 53.3379 60.7989C53.2414 60.8098 53.1404 60.8142 53.0417 60.8142C52.2081 60.8142 51.3218 60.4106 50.8633 60.1671C51.0739 59.7283 51.1814 59.2457 51.1814 58.7586C51.1814 56.9268 49.694 55.4372 47.8621 55.4372C47.8226 55.4372 47.7832 55.4372 47.7415 55.4394C47.8051 54.6035 47.6866 53.0196 46.061 52.3242C45.5937 52.1202 45.1264 52.0192 44.6723 52.0192C44.3191 52.0192 43.9769 52.0785 43.6544 52.2035C43.3209 51.5476 42.7615 51.0715 42.031 50.8236C41.6273 50.6832 41.228 50.613 40.8397 50.613C40.1619 50.613 39.541 50.8104 38.986 51.2053C38.4529 50.545 37.6477 50.1523 36.8009 50.1523C36.0616 50.1523 35.3486 50.4485 34.8199 50.9728C34.1289 50.4419 31.38 48.6978 24.0286 47.0283C23.6732 46.9493 22.8571 46.7146 22.3547 46.5676C22.2713 46.9647 22.2099 47.3662 22.166 47.772C22.166 47.772 23.5218 48.0967 23.7894 48.1581C31.2989 49.8276 33.7822 51.5607 34.2013 51.8876C34.0587 52.2298 33.9863 52.5984 33.9841 52.9692C33.9841 54.5224 35.2455 55.7838 36.7987 55.786C36.9721 55.786 37.1432 55.7707 37.3143 55.7399C37.549 56.8807 38.2949 57.7473 39.4379 58.1904C39.7692 58.3199 40.1092 58.3857 40.4405 58.3857C40.6555 58.3857 40.8683 58.3594 41.0811 58.3067C41.2917 58.8398 41.7677 59.5089 42.8273 59.9389C43.2003 60.0881 43.571 60.1649 43.933 60.1649C44.2292 60.1649 44.5188 60.1144 44.793 60.0135C45.302 61.253 46.5107 62.0735 47.8599 62.0735C48.7528 62.0757 49.6106 61.7115 50.238 61.0665C50.7733 61.3627 51.9053 61.9002 53.0461 61.9024C53.1953 61.9024 53.3335 61.8958 53.4739 61.8782C54.6081 61.7334 55.1346 61.2903 55.3781 60.9459C55.422 60.8844 55.4615 60.8186 55.4944 60.755C55.7642 60.8318 56.056 60.8932 56.3961 60.8932C57.0147 60.8932 57.6092 60.6848 58.2125 60.246C58.8005 59.8182 59.2217 59.2084 59.2809 58.6884C59.2831 58.6818 59.2853 58.6731 59.2853 58.6643C59.485 58.706 59.6912 58.7257 59.8908 58.7257C60.5314 58.7257 61.1588 58.5283 61.7577 58.1356C62.9139 57.3765 63.1157 56.3871 63.0982 55.7377C63.3 55.7772 63.5062 55.8014 63.7124 55.8014C64.3113 55.8014 64.8993 55.6215 65.4587 55.2639C66.1783 54.8054 66.6083 54.1034 66.6741 53.2873C66.7201 52.7322 66.5819 52.1728 66.288 51.6902C68.2273 50.8543 72.6566 49.2397 77.8757 48.0638C77.8428 47.6579 77.7857 47.2587 77.7111 46.8616C71.3995 48.2634 66.6894 50.2993 65.5092 50.828Z" fill="#28316B"/>
</svg>
