<svg width="100" height="100" viewBox="0 0 100 100" fill="none" xmlns="http://www.w3.org/2000/svg">
<path d="M100 47.6032C100 29.6424 77.6118 15 50 15C22.3844 15 0.00378036 29.6424 0.00378036 47.6032C0.00378036 48.0671 0 49.3529 0 49.5151C0 68.5657 19.5627 84 49.9924 84C80.615 84 100 68.5732 100 49.5151V47.6032Z" fill="#28316B"/>
<path d="M98 47.5019C98 64.3432 76.5143 78 49.9981 78C23.4894 78 2 64.3432 2 47.5019C2 30.6568 23.4894 17 49.9981 17C76.5143 17 98 30.6568 98 47.5019Z" fill="#50B4E9"/>
<path d="M34.3003 37.9421C34.2738 37.9905 33.794 38.4814 34.1038 38.8682C34.8632 39.824 37.2057 40.367 39.5746 39.8463C40.9838 39.5339 42.786 38.1207 44.5353 36.7557C46.4319 35.2718 48.3172 33.7842 50.2063 33.1965C52.2087 32.568 53.4895 32.8358 54.3396 33.085C55.269 33.3639 56.3647 33.9627 58.1064 35.2532C61.3934 37.6855 74.6056 49.0363 76.8839 51C78.7276 50.1818 86.896 46.7156 98 44.313C97.0366 38.4851 93.4322 33.1519 87.9728 28.7857C80.3636 31.932 71.0617 33.5759 61.9677 29.1985C61.9224 29.1873 56.9994 26.8889 52.1407 27.0042C44.9244 27.1678 41.7961 30.2436 38.4865 33.4978L34.3003 37.9421Z" fill="white"/>
<path d="M75.9617 51.9976C75.8064 51.8607 60.3874 38.3104 56.8907 35.6748C54.8714 34.1536 53.7463 33.7657 52.5643 33.6135C51.9468 33.5375 51.102 33.6478 50.5034 33.8151C48.8819 34.2563 46.7566 35.6824 44.87 37.1808C42.9151 38.7477 41.074 40.2157 39.3654 40.6036C37.1832 41.0942 34.5162 40.5123 33.2963 39.6871C32.8038 39.3562 32.459 38.9683 32.2924 38.5804C31.8415 37.5307 32.6712 36.6978 32.8038 36.5533L37.062 31.9364C37.5545 31.442 38.0546 30.9438 38.566 30.4532C37.1946 30.6357 35.9255 30.9894 34.6866 31.3317C33.1448 31.7691 31.6635 32.1798 30.1595 32.1798C29.5344 32.1798 26.1778 31.6321 25.5414 31.4572C21.6923 30.3923 18.3092 29.3693 13.263 27C7.2129 31.5219 3.16684 37.177 2 43.4027C2.86755 43.6347 4.26549 44.0492 4.85269 44.1785C18.5479 47.2362 22.8099 50.3851 23.5865 51.0431C24.4238 50.1075 25.6285 49.5142 26.9772 49.5142C28.4963 49.5218 29.8602 50.2824 30.6898 51.4614C31.4741 50.8377 32.5538 50.3129 33.9517 50.3129C34.5844 50.3129 35.2435 50.427 35.9103 50.6551C37.456 51.1838 38.2516 52.2182 38.6645 53.1576C39.1835 52.918 39.82 52.743 40.5701 52.7468C41.3088 52.7468 42.0779 52.9142 42.8469 53.2488C45.37 54.3365 45.764 56.8313 45.5367 58.7063C45.7186 58.6834 45.8928 58.6758 46.0823 58.6758C49.0714 58.6796 51.5111 61.1174 51.5073 64.1256C51.5073 65.0574 51.2686 65.9283 50.8595 66.7003C51.674 67.1567 53.7501 68.1987 55.5685 67.9668C57.0271 67.7804 57.5802 67.2822 57.7772 67.0008C57.9136 66.8106 58.0575 66.5824 57.9211 66.4189L54.0645 62.11C54.0645 62.11 53.4243 61.5091 53.6326 61.2733C53.8524 61.0375 54.2464 61.3798 54.5267 61.6118C56.4853 63.2623 58.891 65.7458 58.891 65.7458C58.9289 65.7762 59.0918 66.088 59.9745 66.2478C60.7397 66.3847 62.0922 66.3086 63.0317 65.5366C63.2666 65.3426 63.5053 65.0954 63.7023 64.8482C63.6871 64.8596 63.672 64.8749 63.6568 64.8825C64.6456 63.6122 63.547 62.3268 63.547 62.3268L59.0387 57.2459C59.0387 57.2459 58.3909 56.645 58.6106 56.4016C58.8076 56.1962 59.2244 56.5119 59.5047 56.7477C60.9329 57.9418 62.9522 59.9803 64.8843 61.8818C65.2631 62.1557 66.9641 63.2129 69.2145 61.7297C70.5783 60.8284 70.8511 59.7255 70.817 58.8888C70.7185 57.7859 69.8623 56.9987 69.8623 56.9987L63.7023 50.7844C63.7023 50.7844 63.0507 50.2254 63.278 49.944C63.4674 49.7044 63.8879 50.0466 64.1683 50.2824C66.1307 51.9292 71.4459 56.8199 71.4459 56.8199C71.5178 56.8732 73.359 58.1852 75.6207 56.7325C76.4352 56.2114 76.9543 55.428 76.9959 54.5191C77.0755 52.9332 75.9617 51.9976 75.9617 51.9976Z" fill="white"/>
<path d="M46.7268 60.8243C45.761 60.8133 44.707 61.363 44.5652 61.2824C44.4886 61.2347 44.6265 60.8646 44.7185 60.6484C44.8067 60.4395 46.0791 56.7786 42.9786 55.5033C40.6024 54.5286 39.1537 55.6243 38.6555 56.1227C38.5214 56.2509 38.4639 56.2399 38.4485 56.075C38.4026 55.4154 38.096 53.6307 36.0456 53.0334C33.1137 52.1796 31.2319 54.1328 30.7529 54.8364C30.5421 53.2423 29.1317 52.0037 27.4033 52C25.5253 52 24 53.4548 24 55.2505C24 57.0425 25.5215 58.4973 27.3994 58.4973C28.3116 58.501 29.1394 58.1528 29.7488 57.5922C29.7679 57.6105 29.7756 57.6398 29.7641 57.7021C29.6223 58.5046 29.3617 61.4253 32.5618 62.6163C33.8457 63.0927 34.9341 62.7372 35.8386 62.1289C36.1069 61.9493 36.149 62.0263 36.1107 62.2682C35.9957 63.0194 36.1414 64.6282 38.5022 65.5406C40.2958 66.2406 41.3574 65.526 42.0511 64.9103C42.3539 64.6465 42.4382 64.6941 42.4573 65.0972C42.5378 67.274 44.4273 68.9963 46.7229 69C49.0837 69 51 67.175 51 64.9177C51 62.6566 49.0876 60.85 46.7268 60.8243Z" fill="white"/>
<path d="M46.2763 68.1976C44.163 68.1976 42.4467 66.5539 42.3711 64.468C42.3635 64.2867 42.3446 63.8105 41.9439 63.8105C41.7776 63.8105 41.6301 63.9088 41.4676 64.0562C40.9988 64.4907 40.4091 64.9253 39.5471 64.9253C39.154 64.9253 38.7306 64.8346 38.2807 64.6532C36.0502 63.7501 36.02 62.216 36.1107 61.6C36.1334 61.4376 36.141 61.2675 36.0313 61.1353L35.8915 61.0143H35.7554C35.642 61.0143 35.521 61.0559 35.366 61.1693C34.7195 61.6227 34.0995 61.8381 33.472 61.8381C33.1242 61.8381 32.7726 61.7739 32.4135 61.634C29.4799 60.4929 29.7105 57.7231 29.8541 56.8881C29.873 56.718 29.8315 56.5895 29.7256 56.4989L29.5177 56.325L29.3249 56.514C28.7503 57.0694 28.0017 57.3679 27.2154 57.3679C25.5369 57.3679 24.1646 56.0001 24.1646 54.3186C24.1646 52.6371 25.5407 51.273 27.2192 51.273C28.7389 51.273 30.0356 52.4141 30.2284 53.9369L30.3342 54.7531L30.7803 54.0616C30.8333 53.9785 32.0657 52.1156 34.3339 52.1156C34.7611 52.1156 35.2072 52.1912 35.6533 52.3272C37.4641 52.8751 37.7666 54.5113 37.8157 55.199C37.8497 55.5958 38.1295 55.6146 38.1862 55.6146C38.3374 55.6146 38.4584 55.5164 38.5378 55.4295C38.878 55.0705 39.619 54.4811 40.7833 54.4811C41.3164 54.4848 41.8797 54.6058 42.4618 54.8589C45.335 56.0908 44.0307 59.7409 44.0156 59.7749C43.7699 60.3795 43.7623 60.6478 43.9929 60.799L44.1063 60.8556H44.1895C44.318 60.8556 44.4768 60.799 44.7452 60.7083C45.1346 60.5722 45.7243 60.372 46.2763 60.372H46.2801C48.4387 60.3984 50.1966 62.1517 50.1966 64.2904C50.1928 66.4443 48.4349 68.1976 46.2763 68.1976ZM76.6898 50.6306C71.9529 46.493 60.9972 36.9708 58.0258 34.7452C56.3322 33.4717 55.1754 32.7954 54.1622 32.4968C53.7048 32.3608 53.0735 32.2021 52.2607 32.2021C51.5084 32.2021 50.6994 32.3381 49.8488 32.6064C47.9283 33.211 46.023 34.73 44.1706 36.1962L44.0799 36.2717C42.356 37.6396 40.5792 39.0566 39.2334 39.3551C38.6436 39.4874 38.0387 39.5554 37.4377 39.5554C35.9293 39.5554 34.5759 39.1208 34.0693 38.4709C33.9824 38.3651 34.0391 38.1951 34.2319 37.9419L34.2583 37.9079L38.4281 33.4151C41.6944 30.1541 44.7792 27.0669 51.8826 26.9044C51.9998 26.9007 52.1208 26.8969 52.238 26.8969C56.6573 26.9044 61.0766 28.8807 61.5719 29.1074C65.719 31.1328 69.9946 32.1605 74.2968 32.1643C78.7803 32.1643 83.4038 31.0534 88.2654 28.8164C87.721 28.3592 87.154 27.9171 86.5756 27.4788C82.3037 29.3303 78.236 30.2674 74.3081 30.2674C70.2971 30.2599 66.2898 29.2963 62.4036 27.3994C62.1956 27.305 57.3189 25 52.238 25C52.1057 25 51.9734 25 51.8411 25.0038C45.8756 25.1436 42.5148 27.2634 40.2541 29.115C38.0539 29.1716 36.1599 29.7006 34.4738 30.173C32.9654 30.5886 31.6687 30.9514 30.4023 30.9514C29.8768 30.9514 28.9393 30.906 28.8561 30.9023C27.3969 30.8569 20.0515 29.0583 14.207 26.844C13.6097 27.2672 13.035 27.7017 12.4793 28.1476C18.5847 30.6453 26.0132 32.5838 28.3571 32.7311C29.0073 32.7803 29.7029 32.852 30.3985 32.852C31.9485 32.852 33.4947 32.4175 34.9955 32.0018C35.8801 31.7487 36.8555 31.4804 37.88 31.2801C37.6078 31.5522 37.3356 31.8242 37.0596 32.1001L32.8218 36.6798C32.4929 37.0161 31.7632 37.9154 32.2434 39.0226C32.4324 39.4685 32.8142 39.8955 33.3586 40.2582C34.368 40.9384 36.175 41.3956 37.8535 41.3956C38.4886 41.3994 39.0973 41.3351 39.6492 41.2066C41.426 40.8137 43.286 39.3287 45.2593 37.7605C46.832 36.5098 49.0662 34.9265 50.775 34.458C51.2551 34.3295 51.8448 34.2501 52.3174 34.2501C52.4573 34.2539 52.5896 34.2539 52.7106 34.269C53.8409 34.4164 54.9372 34.798 56.8879 36.2642C60.3659 38.8752 75.756 52.3348 75.9072 52.467C75.9186 52.4746 76.8977 53.3172 76.8296 54.7304C76.7918 55.5126 76.3571 56.2079 75.601 56.6916C74.9432 57.1072 74.2627 57.3188 73.5823 57.3188C72.5502 57.3188 71.8433 56.8352 71.7979 56.8011C71.7374 56.7558 66.4675 51.9229 64.5244 50.3019C64.2182 50.0449 63.9195 49.8144 63.6171 49.8144C63.4507 49.8144 63.3071 49.8824 63.2088 50.0033C62.9026 50.3812 63.2466 50.9027 63.6511 51.2465L69.8132 57.4284C69.8207 57.436 70.5806 58.1501 70.66 59.1023C70.7091 60.1264 70.2177 60.9841 69.197 61.6529C68.4711 62.1328 67.7377 62.3747 67.0157 62.3747C66.0668 62.3747 65.409 61.9439 65.2578 61.8381L64.3769 60.9728C62.7589 59.382 61.0918 57.7383 59.8745 56.7218C59.5758 56.4724 59.2582 56.2457 58.9558 56.2457C58.8046 56.2457 58.6685 56.3061 58.5664 56.4119C58.4266 56.5669 58.3283 56.8427 58.6761 57.3037C58.8197 57.4964 58.9861 57.6513 58.9861 57.6513L63.4848 62.6958C63.5226 62.745 64.4072 63.7992 63.583 64.8497L63.4243 65.0537C63.2882 65.2011 63.1445 65.3333 63.0084 65.4543C62.241 66.0853 61.2165 66.1495 60.812 66.1495C60.5927 66.1495 60.381 66.1306 60.2034 66.0966C59.7573 66.0211 59.4586 65.8964 59.3187 65.7263L59.2658 65.6659C59.0163 65.4165 56.7518 63.1002 54.8767 61.5396C54.631 61.3355 54.321 61.071 54.0035 61.071C53.8447 61.071 53.7048 61.1353 53.599 61.2524C53.2247 61.6605 53.7804 62.2689 54.0186 62.488L57.8557 66.7126C57.8519 66.7503 57.799 66.841 57.7045 66.9733C57.5684 67.166 57.1034 67.6308 55.716 67.8046C55.5497 67.8235 55.3758 67.831 55.2056 67.831C53.7691 67.831 52.2418 67.1358 51.4517 66.7163C51.8146 65.9606 51.9998 65.1293 51.9998 64.2904C51.9998 61.1353 49.4367 58.5696 46.2801 58.5696C46.212 58.5696 46.144 58.5696 46.0721 58.5733C46.1818 57.1337 45.9776 54.4055 43.1763 53.2076C42.3711 52.8562 41.5659 52.6824 40.7833 52.6824C40.1747 52.6824 39.5849 52.7844 39.0292 52.9998C38.4546 51.87 37.4906 51.05 36.2317 50.623C35.5361 50.3812 34.8481 50.2603 34.1789 50.2603C33.0108 50.2603 31.9409 50.6004 30.9845 51.2805C30.0658 50.1432 28.6784 49.4668 27.2192 49.4668C25.9452 49.4668 24.7165 49.9769 23.8055 50.88C22.6146 49.9656 17.8778 46.9615 5.20958 44.086C4.59715 43.9499 3.19083 43.5456 2.32511 43.2925C2.18146 43.9764 2.07561 44.6679 2 45.3669C2 45.3669 4.3363 45.9262 4.79751 46.032C17.7379 48.9075 22.0173 51.8927 22.7394 52.4557C22.4937 53.0452 22.3689 53.68 22.3651 54.3186C22.3651 56.9939 24.5389 59.1666 27.2154 59.1704C27.5141 59.1704 27.8089 59.1439 28.1038 59.091C28.5083 61.0559 29.7936 62.5485 31.7633 63.3118C32.3341 63.5347 32.9201 63.6481 33.4909 63.6481C33.8614 63.6481 34.2281 63.6027 34.5948 63.512C34.9577 64.4302 35.7781 65.5827 37.604 66.3234C38.2467 66.5803 38.8856 66.7126 39.5093 66.7126C40.0197 66.7126 40.5187 66.6256 40.9913 66.4518C41.8683 68.5868 43.9513 70 46.2763 70C47.8149 70.0038 49.2931 69.3765 50.3743 68.2656C51.2967 68.7757 53.2474 69.7015 55.2132 69.7052C55.4703 69.7052 55.7084 69.6939 55.9504 69.6637C57.9049 69.4143 58.8122 68.651 59.2318 68.0578C59.3074 67.952 59.3754 67.8386 59.4321 67.729C59.8971 67.8613 60.3999 67.9671 60.9859 67.9671C62.052 67.9671 63.0765 67.6081 64.1161 66.8524C65.1292 66.1155 65.8551 65.0651 65.9571 64.1695C65.9609 64.1582 65.9647 64.1431 65.9647 64.128C66.3087 64.1997 66.6641 64.2338 67.0081 64.2338C68.112 64.2338 69.1932 63.8937 70.2253 63.2173C72.2175 61.9099 72.5653 60.2057 72.5351 59.0872C72.8829 59.1552 73.2382 59.1968 73.5936 59.1968C74.6257 59.1968 75.6388 58.887 76.6028 58.271C77.8428 57.4813 78.5838 56.2721 78.6972 54.8665C78.7766 53.9105 78.5384 52.9469 78.0318 52.1156C81.3737 50.6759 89.0064 47.8949 98 45.8695C97.9433 45.1705 97.845 44.4827 97.7165 43.7988C86.8402 46.2134 78.7236 49.7199 76.6898 50.6306Z" fill="#28316B"/>
</svg>
