<svg width="100" height="100" viewBox="0 0 100 100" fill="none" xmlns="http://www.w3.org/2000/svg">
<rect width="100" height="100" fill="#820AD1"/>
<path d="M31.4699 37.0525C33.304 35.1256 35.7369 34 38.5951 34C44.1632 34 47.8549 38.0654 48.5612 44.1557C48.7902 46.1335 48.7881 48.9219 48.7858 52.1516C48.7855 52.4828 48.7854 52.8187 48.7854 53.1588V65.2578H41.1282V56.309C41.1282 56.309 41.1125 48.6501 41.0657 47.2187C40.8602 40.9845 37.1695 37.0672 31.4691 37.063C29.7493 38.8801 28.8278 41.1017 28.6919 44.4987C28.6732 44.9725 28.6779 46.6519 28.6841 48.8653C28.6873 50.0121 28.6909 51.3023 28.6919 52.6424C28.6975 58.4753 28.6919 65.2591 28.6919 65.2591H21.0347V51.487C21.0347 51.0151 21.0261 50.5392 21.0174 50.0614C21.0001 49.1003 20.9826 48.1318 21.0347 47.1728C21.1212 45.5741 21.3977 44.0025 22.1437 42.5425C23.8513 39.1978 27.3502 37.0443 31.0802 37.0443C31.2105 37.0443 31.3409 37.0473 31.4699 37.0523V37.0525Z" fill="white"/>
<path d="M78.9658 52.8273C79.0179 51.8683 79.0004 50.8997 78.9831 49.9387C78.9744 49.4609 78.9658 48.985 78.9658 48.5131V34.741H71.3087C71.3087 34.741 71.303 41.5248 71.3087 47.3576C71.3096 48.6977 71.3132 49.9878 71.3164 51.1346C71.3226 53.3481 71.3273 55.0275 71.3087 55.5013C71.1728 58.8984 70.2512 61.12 68.5314 62.9371C62.8311 62.9331 59.1405 59.0155 58.9349 52.7814C58.8881 51.35 58.8683 47.7979 58.8683 43.6839V34.7351L51.2168 34.7421V46.8411C51.2168 47.1812 51.2164 47.517 51.2163 47.8483C51.2139 51.078 51.2119 53.8663 51.4409 55.8442C52.1457 61.9345 55.8374 65.9999 61.4055 65.9999C64.2638 65.9999 66.6967 64.8743 68.5308 62.9474C68.6597 62.9524 68.79 62.9554 68.9203 62.9554C72.6503 62.9554 76.1492 60.8019 77.8568 57.4572C78.6028 55.9971 78.8793 54.4256 78.9658 52.8269L78.9658 52.8273Z" fill="white"/>
</svg>
