<svg width="100" height="100" viewBox="0 0 100 100" fill="none" xmlns="http://www.w3.org/2000/svg">
<path d="M18.0865 27.2731C21.2548 23.9444 25.4576 22 30.3951 22C40.0138 22 46.3911 29.023 47.6112 39.5439C48.0068 42.9606 48.0032 47.7775 47.9992 53.3568C47.9986 53.929 47.9984 54.5093 47.9984 55.0968V75.9978H34.7708V60.5387C34.7708 60.5387 34.7439 47.308 34.663 44.8353C34.308 34.0657 27.9324 27.2986 18.0852 27.2913C15.1142 30.4303 13.5223 34.2682 13.2875 40.1365C13.2552 40.955 13.2634 43.8561 13.274 47.6798C13.2796 49.6609 13.2858 51.8897 13.2875 54.2047C13.2973 64.281 13.2875 76 13.2875 76H0.0598884V52.2087C0.0598884 51.3935 0.0450223 50.5714 0.0301186 49.746C0.000117394 48.0857 -0.0301193 46.4126 0.0598884 44.756C0.209338 41.9942 0.687088 39.2793 1.97578 36.7572C4.92558 30.9792 10.9697 27.259 17.4133 27.259C17.6384 27.259 17.8636 27.2641 18.0865 27.2728V27.2731Z" fill="#820AD1"/>
<path d="M99.9401 54.2485C100.03 52.5921 99.9999 50.9192 99.97 49.2593C99.955 48.4341 99.9401 47.6121 99.9401 46.7971V23.0101H86.7119C86.7119 23.0101 86.702 34.727 86.7119 44.8013C86.7135 47.1159 86.7197 49.3441 86.7252 51.3249C86.7359 55.148 86.744 58.0486 86.7119 58.867C86.4771 64.7344 84.885 68.5715 81.9139 71.7099C72.0662 71.703 65.6904 64.9366 65.3352 54.1692C65.2544 51.6969 65.2202 45.5618 65.2202 38.4562V23L52.0016 23.0121V43.9093C52.0016 44.4967 52.001 45.0767 52.0008 45.6489C51.9967 51.2272 51.9932 56.0431 52.3888 59.4593C53.6064 69.9783 59.9841 77 69.6034 77C74.5414 77 78.7444 75.0559 81.9129 71.7278C82.1356 71.7364 82.3607 71.7416 82.5858 71.7416C89.0297 71.7416 95.0743 68.0221 98.0243 62.2452C99.3131 59.7234 99.7907 57.0091 99.9402 54.2479L99.9401 54.2485Z" fill="#820AD1"/>
</svg>
