<svg width="100" height="100" viewBox="0 0 100 100" fill="none" xmlns="http://www.w3.org/2000/svg">
<rect width="100" height="100" fill="#0F7F3C"/>
<path d="M32.4188 33C28.342 33 25 36.3494 25 40.4353V59.8814C25 63.9673 28.342 67.3167 32.4188 67.3167H67.8007C71.8776 67.3167 75.2195 63.9673 75.2195 59.8814V40.4353C75.2195 36.3494 71.8776 33 67.8007 33H32.4188ZM32.4188 36.4317H67.8007C70.0264 36.4317 71.7955 38.2046 71.7955 40.4353V42.1511H28.4241V40.4353C28.4241 38.2046 30.1931 36.4317 32.4188 36.4317ZM28.4241 46.7267H71.7955V59.8814C71.7955 62.1121 70.0264 63.885 67.8007 63.885H32.4188C30.1931 63.885 28.4241 62.1121 28.4241 59.8814V46.7267ZM58.9606 55.5151C58.7337 55.5119 58.5085 55.5539 58.298 55.6387C58.0875 55.7235 57.8958 55.8493 57.7343 56.009C57.5727 56.1686 57.4444 56.3589 57.3569 56.5686C57.2693 56.7784 57.2242 57.0035 57.2242 57.2309C57.2242 57.4583 57.2693 57.6834 57.3569 57.8932C57.4444 58.103 57.5727 58.2932 57.7343 58.4529C57.8958 58.6125 58.0875 58.7384 58.298 58.8232C58.5085 58.908 58.7337 58.95 58.9606 58.9468H65.8087C66.0356 58.95 66.2608 58.908 66.4714 58.8232C66.6819 58.7384 66.8735 58.6125 67.0351 58.4529C67.1966 58.2932 67.3249 58.103 67.4125 57.8932C67.5 57.6834 67.5451 57.4583 67.5451 57.2309C67.5451 57.0035 67.5 56.7784 67.4125 56.5686C67.3249 56.3589 67.1966 56.1686 67.0351 56.009C66.8735 55.8493 66.6819 55.7235 66.4714 55.6387C66.2608 55.5539 66.0356 55.5119 65.8087 55.5151H58.9606Z" fill="white"/>
</svg>
