<svg width="100" height="100" viewBox="0 0 100 100" fill="none" xmlns="http://www.w3.org/2000/svg">
<path d="M71.4427 0C70.694 0.0299651 69.9453 0.119868 69.1966 0.299667H69.1367L12.2057 16.8415C7.29427 18.22 4 22.8349 4 27.9592V88.0432C4 94.4561 9.0612 100 15.5 100H84.5C90.9089 100 96 94.4861 96 88.0432V35.2412C96 28.7684 90.9388 23.2544 84.5 23.2544H17.6562L71.0534 7.73149H71.0833C71.862 7.52172 72.0716 7.67156 72.3711 7.94126C72.6406 8.21096 73 8.8103 73 9.76925V15.5229H80.6667V9.76925C80.6667 6.89241 79.5885 4.13545 77.4622 2.24752C75.9049 0.839077 73.7187 0 71.4427 0ZM15.5 30.926H84.5C86.5365 30.926 88.3333 32.694 88.3333 35.2412V88.0432C88.3333 90.5604 86.5365 92.3284 84.5 92.3284H15.5C13.4635 92.3284 11.6667 90.5604 11.6667 88.0432V35.2412C11.6667 32.694 13.4635 30.926 15.5 30.926ZM73 53.8807C68.7773 53.8807 65.3333 57.3269 65.3333 61.5523C65.3333 65.7776 68.7773 69.2239 73 69.2239C77.2227 69.2239 80.6667 65.7776 80.6667 61.5523C80.6667 57.3269 77.2227 53.8807 73 53.8807Z" fill="#0F7F3C"/>
</svg>
