<svg width="100" height="100" viewBox="0 0 100 100" fill="none" xmlns="http://www.w3.org/2000/svg">
<rect width="100" height="100" fill="#A7DCDA"/>
<path d="M73.0881 40.5916C67.8038 27.8912 53.1704 21.8548 40.4252 27.1104C27.6799 32.3661 21.6253 46.9205 26.9116 59.6229C32.1979 72.3252 46.8293 78.3576 59.5725 73.102C72.3158 67.8463 78.3765 53.2919 73.0881 40.5916Z" fill="black"/>
<path d="M58.9789 28.5507C47.0242 23.6239 33.3135 29.2831 28.3565 41.1905C23.3994 53.0979 29.0739 66.7425 41.0265 71.6673C52.9792 76.5921 66.6899 70.9369 71.6469 59.0295C76.604 47.122 70.9315 33.4735 58.9789 28.5507Z" fill="black"/>
<path d="M70.7772 46.7331C70.7772 35.2897 61.4769 26.0312 49.9978 26.0312C38.5187 26.0312 29.2285 35.2897 29.2285 46.7331C29.2285 58.1765 38.5289 67.4349 49.9978 67.4349C61.4667 67.4349 70.7772 58.1664 70.7772 46.7331Z" fill="#DDE460"/>
<path d="M49.9975 67.9733C38.0876 67.9733 28.4336 58.3598 28.4336 46.4887C28.4336 34.6176 38.0876 25 49.9975 25C61.9075 25 71.5635 34.6216 71.5635 46.4887C71.5635 58.3558 61.9095 67.9733 49.9975 67.9733ZM49.9975 26.5898C46.0193 26.5722 42.1255 27.7277 38.8097 29.9097C35.4938 32.0918 32.9054 35.2021 31.3726 38.8462C29.8398 42.4904 29.4316 46.5044 30.1998 50.3792C30.968 54.2539 32.878 57.815 35.6876 60.6108C38.4973 63.4066 42.0799 65.3113 45.9814 66.0833C49.8829 66.8553 53.9274 66.4599 57.6022 64.9472C61.2771 63.4345 64.4166 60.8727 66.6228 57.5865C68.829 54.3003 70.0025 50.4378 69.9945 46.4887C69.9884 35.4911 61.0396 26.5676 49.9975 26.5555V26.5898Z" fill="black"/>
<path d="M63.7678 56.2131C63.7678 46.7308 56.0447 39.0278 46.5208 39.0278C36.9969 39.0278 29.2676 46.7227 29.2676 56.2131C29.2676 65.7036 36.9908 73.3964 46.5126 73.3964C56.0345 73.3964 63.7597 65.7016 63.7597 56.2131H63.7678Z" fill="#A7DCDA"/>
<path d="M46.5572 74.1794C45.2748 74.1795 43.996 74.0443 42.7424 73.7759C33.0091 71.7019 26.8103 62.1529 28.8976 52.4527C29.3876 50.1503 30.3302 47.9666 31.6716 46.0264C33.013 44.0862 34.7267 42.4278 36.7146 41.1459C38.7025 39.8641 40.9256 38.9841 43.2566 38.5563C45.5876 38.1284 47.9807 38.1612 50.2989 38.6528C60.0362 40.7308 66.2351 50.2778 64.1539 59.978C63.2982 63.9809 61.0884 67.5726 57.8916 70.1561C54.6949 72.7396 50.7038 74.1594 46.5816 74.1794H46.5572ZM46.5166 39.8048C42.7678 39.7941 39.1269 41.0495 36.1919 43.3647C33.257 45.6799 31.2026 48.9171 30.3662 52.5446C29.5299 56.1722 29.9613 59.9742 31.5897 63.3261C33.218 66.678 35.9464 69.3805 39.3266 70.9895C42.7069 72.5985 46.5379 73.0184 50.1903 72.1802C53.8427 71.342 57.0994 69.2955 59.4252 66.377C61.7509 63.4585 63.0076 59.8415 62.9886 56.1202C62.9696 52.3989 61.6762 48.7947 59.3208 45.8997C57.7786 44.0013 55.8286 42.4688 53.6133 41.4143C51.398 40.3598 48.9734 39.8099 46.5166 39.8048Z" fill="black"/>
<path d="M72.2829 56.9356C72.2745 54.837 71.6399 52.7879 70.4593 51.0471C69.2787 49.3062 67.605 47.9516 65.6495 47.1542C63.6939 46.3568 61.5443 46.1524 59.4718 46.5668C57.3993 46.9812 55.497 47.9958 54.005 49.4825C52.5129 50.9693 51.4981 52.8615 51.0885 54.9203C50.6789 56.9791 50.8929 59.1123 51.7036 61.0505C52.5143 62.9886 53.8853 64.6449 55.6434 65.8103C57.4016 66.9756 59.4682 67.5978 61.5823 67.5982C62.9901 67.5958 64.3838 67.3181 65.6835 66.7809C66.9832 66.2437 68.1635 65.4575 69.1571 64.4673C70.1506 63.4771 70.9379 62.3023 71.4739 61.01C72.0099 59.7176 72.2841 58.3331 72.2809 56.9356H72.2829Z" fill="#F6DF3F"/>
<path d="M61.5823 68.3769C59.3008 68.3857 57.068 67.7221 55.1667 66.4703C53.2654 65.2184 51.7812 63.4346 50.902 61.3447C50.0227 59.2549 49.7881 56.953 50.2278 54.7307C50.6674 52.5084 51.7616 50.4655 53.3717 48.861C54.9819 47.2564 57.0355 46.1623 59.2725 45.7173C61.5095 45.2722 63.8292 45.4962 65.9379 46.3608C68.0466 47.2255 69.8493 48.6919 71.1178 50.5744C72.3862 52.4568 73.0634 54.6707 73.0634 56.9355C73.0663 58.4351 72.7717 59.9205 72.1963 61.3071C71.6209 62.6937 70.776 63.9541 69.7099 65.0166C68.6438 66.079 67.3773 66.9226 65.9828 67.4991C64.5882 68.0757 63.0929 68.374 61.5823 68.3769ZM61.5823 47.0556C59.6108 47.0472 57.6812 47.6199 56.0379 48.7011C54.3945 49.7822 53.1114 51.3232 52.3511 53.1289C51.5908 54.9345 51.3875 56.9236 51.7669 58.844C52.1464 60.7645 53.0915 62.53 54.4825 63.9168C55.8736 65.3036 57.648 66.2493 59.581 66.6342C61.5139 67.0191 63.5185 66.8259 65.3407 66.0789C67.163 65.3319 68.7209 64.0648 69.817 62.4382C70.9132 60.8116 71.4984 58.8986 71.4984 56.9415C71.5038 55.6454 71.2513 54.3609 70.7553 53.1619C70.2594 51.9628 69.5299 50.8728 68.6086 49.9543C67.6873 49.0358 66.5923 48.3069 65.3866 47.8095C64.1808 47.3121 62.888 47.0559 61.5823 47.0556Z" fill="black"/>
</svg>
