<svg width="100" height="100" viewBox="0 0 100 100" fill="none" xmlns="http://www.w3.org/2000/svg">
<g clip-path="url(#clip0_6_46992)">
<path d="M96.1762 31.1829C85.6077 5.7822 56.3409 -6.29068 30.8503 4.22063C5.35975 14.7319 -6.74938 43.8408 3.82325 69.2455C14.3959 94.6502 43.6586 106.715 69.1451 96.2037C94.6316 85.6924 106.753 56.5835 96.1762 31.1829Z" fill="black"/>
<path d="M67.9577 7.10163C44.0484 -2.75197 16.6271 8.56636 6.71293 32.3812C-3.20119 56.1961 8.14782 83.4852 32.0531 93.3348C55.9584 103.184 83.3797 91.8741 93.2938 68.0592C103.208 44.2443 91.863 16.9472 67.9577 7.10163Z" fill="black"/>
<path d="M91.5544 43.4657C91.5544 20.5789 72.9537 2.06201 49.9955 2.06201C27.0374 2.06201 8.45703 20.5789 8.45703 43.4657C8.45703 66.3525 27.0577 84.8694 49.9955 84.8694C72.9334 84.8694 91.5544 66.3324 91.5544 43.4657Z" fill="#DDE460"/>
<path d="M49.996 85.9466C26.1761 85.9466 6.86816 66.7196 6.86816 42.9774C6.86816 19.2351 26.1761 0 49.996 0C73.8159 0 93.128 19.2432 93.128 42.9774C93.128 66.7115 73.82 85.9466 49.996 85.9466ZM49.996 3.17962C42.0396 3.14447 34.2519 5.45543 27.6203 9.81948C20.9887 14.1835 15.8118 20.4041 12.7462 27.6925C9.68058 34.9809 8.86422 43.0088 10.4006 50.7583C11.9371 58.5078 15.757 65.6299 21.3763 71.2216C26.9955 76.8133 34.1608 80.6226 41.9638 82.1667C49.7667 83.7107 57.8559 82.9199 65.2055 79.8945C72.5551 76.869 78.8342 71.7453 83.2466 65.1729C87.659 58.6006 90.0059 50.8755 89.9899 42.9774C89.9777 20.9823 72.0803 3.13524 49.996 3.11103V3.17962Z" fill="black"/>
<path d="M77.5347 62.4263C77.5347 43.4615 62.0883 28.0557 43.0405 28.0557C23.9927 28.0557 8.53418 43.4454 8.53418 62.4263C8.53418 81.4072 23.9805 96.7928 43.0243 96.7928C62.068 96.7928 77.5184 81.4031 77.5184 62.4263H77.5347Z" fill="#A7DCDA"/>
<path d="M43.1135 98.3586C40.5486 98.3588 37.991 98.0883 35.4838 97.5515C16.0173 93.4035 3.61955 74.3056 7.79414 54.9051C8.77417 50.3004 10.6595 45.9329 13.3422 42.0526C16.025 38.1723 19.4523 34.8553 23.4282 32.2916C27.404 29.7279 31.8502 27.9679 36.5122 27.1123C41.1742 26.2567 45.9604 26.3222 50.5968 27.3053C70.0714 31.4614 82.4692 50.5553 78.3068 69.9558C76.5954 77.9616 72.1757 85.1449 65.7823 90.3119C59.3888 95.4789 51.4065 98.3185 43.1622 98.3586H43.1135ZM43.0322 29.6093C35.5347 29.588 28.2528 32.0988 22.3829 36.7291C16.513 41.3595 12.4042 47.834 10.7315 55.089C9.0588 62.3441 9.92165 69.9481 13.1783 76.6519C16.435 83.3558 21.8918 88.7607 28.6523 91.9788C35.4127 95.1968 43.0748 96.0366 50.3797 94.3602C57.6845 92.6838 64.1978 88.5908 68.8493 82.7537C73.5009 76.9167 76.0142 69.6827 75.9762 62.2402C75.9383 54.7976 73.3514 47.5892 68.6406 41.7992C65.5562 38.0023 61.6562 34.9373 57.2256 32.8283C52.795 30.7193 47.9458 29.6195 43.0322 29.6093Z" fill="black"/>
<path d="M94.5668 63.8709C94.55 59.6737 93.2808 55.5756 90.9196 52.0939C88.5584 48.6121 85.211 45.9029 81.2999 44.3081C77.3889 42.7133 73.0895 42.3045 68.9446 43.1333C64.7997 43.9621 60.995 45.9913 58.0109 48.9648C55.0268 51.9383 52.9971 55.7227 52.1779 59.8404C51.3587 63.958 51.7868 68.2243 53.4082 72.1007C55.0296 75.977 57.7715 79.2896 61.2878 81.6203C64.8042 83.951 68.9373 85.1953 73.1655 85.1961C75.9813 85.1914 78.7685 84.6359 81.3679 83.5615C83.9674 82.4871 86.3281 80.9147 88.3151 78.9344C90.3022 76.954 91.8767 74.6043 92.9487 72.0197C94.0207 69.435 94.5692 66.666 94.5628 63.8709H94.5668Z" fill="#F6DF3F"/>
<path d="M73.1655 86.7537C68.6026 86.7713 64.137 85.4442 60.3344 82.9405C56.5319 80.4368 53.5633 76.8692 51.8049 72.6895C50.0465 68.5098 49.5772 63.906 50.4565 59.4614C51.3358 55.0167 53.5242 50.9311 56.7445 47.722C59.9647 44.5129 64.0719 42.3247 68.5459 41.4345C73.0199 40.5444 77.6594 40.9923 81.8768 42.7216C86.0942 44.4509 89.6996 47.3838 92.2365 51.1487C94.7735 54.9137 96.1277 59.3414 96.1278 63.8709C96.1336 66.8701 95.5444 69.8411 94.3936 72.6142C93.2428 75.3873 91.553 77.9083 89.4208 80.0331C87.2886 82.158 84.7556 83.8452 81.9665 84.9983C79.1774 86.1514 76.1868 86.7479 73.1655 86.7537ZM73.1655 44.1113C69.2226 44.0945 65.3633 45.2398 62.0767 47.4021C58.79 49.5644 56.2239 52.6465 54.7032 56.2578C53.1826 59.8691 52.776 63.8472 53.5348 67.6881C54.2937 71.529 56.1839 75.0599 58.966 77.8335C61.7481 80.6072 65.2969 82.4987 69.1629 83.2685C73.0289 84.0383 77.038 83.6517 80.6825 82.1577C84.3269 80.6638 87.4427 78.1296 89.6351 74.8764C91.8274 71.6231 92.9978 67.7971 92.9978 63.883C93.0085 61.2907 92.5035 58.7218 91.5117 56.3237C90.5198 53.9256 89.0608 51.7455 87.2181 49.9086C85.3755 48.0716 83.1856 46.6138 80.7741 45.619C78.3626 44.6241 75.777 44.1118 73.1655 44.1113Z" fill="black"/>
</g>
<defs>
<clipPath id="clip0_6_46992">
<rect width="100" height="100" fill="white"/>
</clipPath>
</defs>
</svg>
