<svg width="100" height="100" viewBox="0 0 100 100" fill="none" xmlns="http://www.w3.org/2000/svg">
<g clip-path="url(#clip0_6_46971)">
<path fill-rule="evenodd" clip-rule="evenodd" d="M32.0886 56.5693C30.1558 53.9893 28.4562 48.6478 28.4562 48.6478C12.3549 52.8584 0 61.8417 0 71.6601C0 85.6564 22.3867 97 50 97C77.6133 97 100 85.6546 100 71.6601C100 61.3523 87.861 52.4832 70.4349 48.5233C70.4349 48.5233 71.7908 42.4347 67.6903 36.2735C63.5899 30.1123 53.6911 15.6163 53.6911 15.6163C50 10.7452 51.7583 3 51.7583 3C40.3931 14.2088 49.0621 27.7658 49.0621 27.7658L62.652 47.6604C67.8665 56.9307 61.246 65.1479 61.246 65.1479L56.2681 72.4832C63.0026 62.2705 56.7362 54.3507 56.7362 54.3507L43.0893 34.4561C38.1097 27.9422 40.9804 19.7837 40.9804 19.7837C28.7982 30.9925 36.7642 44.0221 36.7642 44.0221L50.4128 64.1519C56.5048 72.9536 51.0571 80.9339 51.0571 80.9339L45.7855 88.7396C48.9498 80.5258 43.8528 73.9531 43.8528 73.9531L32.1438 56.718L32.0886 56.5693Z" fill="#FE0000" stroke="#FE0000" stroke-width="0.428002" stroke-miterlimit="2.613"/>
</g>
<defs>
<clipPath id="clip0_6_46971">
<rect width="100" height="100" fill="white"/>
</clipPath>
</defs>
</svg>
