<svg width="100" height="100" viewBox="0 0 100 100" fill="none" xmlns="http://www.w3.org/2000/svg">
<rect width="100" height="100" fill="#FE0000"/>
<path fill-rule="evenodd" clip-rule="evenodd" d="M41.0443 47.8182C40.0779 46.5266 39.2281 43.8524 39.2281 43.8524C31.1775 45.9604 25 50.4576 25 55.373C25 62.3799 36.1933 68.0588 50 68.0588C63.8067 68.0588 75 62.379 75 55.373C75 50.2127 68.9305 45.7725 60.2175 43.7901C60.2175 43.7901 60.8954 40.742 58.8452 37.6576C56.7949 34.5731 51.8456 27.3161 51.8456 27.3161C50 24.8774 50.8792 21 50.8792 21C45.1966 26.6114 49.5311 33.3984 49.5311 33.3984L56.326 43.3581C58.9333 47.9991 55.623 52.1128 55.623 52.1128L53.1341 55.7851C56.5013 50.6723 53.3681 46.7075 53.3681 46.7075L46.5447 36.7477C44.0549 33.4867 45.4902 29.4024 45.4902 29.4024C39.3991 35.0138 43.3821 41.5367 43.3821 41.5367L50.2064 51.6142C53.2524 56.0206 50.5285 60.0157 50.5285 60.0157L47.8928 63.9234C49.4749 59.8114 46.9264 56.5209 46.9264 56.5209L41.0719 47.8926L41.0443 47.8182Z" fill="white" stroke="white" stroke-width="0.314708" stroke-miterlimit="2.613"/>
</svg>
